<?xml version="1.0" standalone="no"?>
<!DOCTYPE svg PUBLIC "-//W3C//DTD SVG 1.1//EN" "http://www.w3.org/Graphics/SVG/1.1/DTD/svg11.dtd" >
<svg>
<metadata>
Created by FontForge 20090622 at Fri Apr  5 02:10:45 2019
 By deploy user
Copyright 2018 Adobe Systems Incorporated. All rights reserved.
</metadata>
<defs>
<font id="SVN-ProductSansBold" horiz-adv-x="535" >
  <font-face 
    font-family="SVN-Product Sans"
    font-weight="700"
    font-stretch="normal"
    units-per-em="1000"
    panose-1="2 11 7 3 3 5 2 4 2 3"
    ascent="800"
    descent="-200"
    x-height="490"
    cap-height="716"
    bbox="-176 -253 3284 1057"
    underline-thickness="50"
    underline-position="-75"
    unicode-range="U+000D-U+2215"
  />
<missing-glyph horiz-adv-x="570" 
d="M72 0v716h426v-716h-426zM136 656v-596h298v596h-298z" />
    <glyph glyph-name="f_i" unicode="fi" horiz-adv-x="623" 
d="M243 378v-378h-131v378h-88v112h88v48q0 87 51 136.5t135 49.5q31 0 55 -8l-8 -123q-16 7 -39 7q-29 0 -46 -18.5t-17 -51.5v-40h316v-490h-131v378h-185zM493 573q-31 0 -53 22t-22 53q0 32 22 54t53 22q32 0 54.5 -22t22.5 -54q0 -31 -22.5 -53t-54.5 -22z" />
    <glyph glyph-name="f_l" unicode="fl" horiz-adv-x="615" 
d="M559 0h-131v599h-116q-33 0 -51 -20t-18 -56v-33h115v-112h-115v-378h-131v378h-88v112h88v31q0 97 51 148t148 51h248v-720z" />
    <glyph glyph-name="f_b" unicode="fb" horiz-adv-x="972" 
d="M428 0v599h-116q-32 0 -50.5 -20t-18.5 -57v-32h115v-112h-115v-378h-131v378h-88v112h88v31q0 97 51 148t148 51h248v-219l-8 -70h8q19 33 58 54t92 21q96 0 165.5 -74.5t69.5 -186.5t-69.5 -186.5t-165.5 -74.5q-53 0 -92 21t-58 54h-8v-59h-123zM682 105q53 0 92 39
t39 101t-39 101t-92 39q-54 0 -92.5 -38.5t-38.5 -101.5t38.5 -101.5t92.5 -38.5z" />
    <glyph glyph-name="f_f" unicode="ff" horiz-adv-x="713" 
d="M614 724q54 0 95 -18l-37 -117q-20 11 -50 11q-29 0 -46 -19t-17 -52v-39h122v-112h-122v-378h-131v378h-185v-378h-131v378h-88v112h88v48q0 87 51 136.5t135 49.5q31 0 55 -8l-8 -123q-16 7 -39 7q-29 0 -46 -19t-17 -52v-39h185v48q0 87 51 136.5t135 49.5z" />
    <glyph glyph-name="f_f_b" unicode="ffb" horiz-adv-x="1288" 
d="M744 0v599h-116q-32 0 -50.5 -20t-18.5 -57v-32h115v-112h-115v-378h-131v378h-185v-378h-131v378h-88v112h88v48q0 87 51 136.5t135 49.5q31 0 55 -8l-8 -123q-16 7 -39 7q-29 0 -46 -19t-17 -52v-39h185v31q0 97 51.5 148t148.5 51h247v-219l-8 -70h8q19 33 58 54
t92 21q96 0 165.5 -74.5t69.5 -186.5t-69.5 -186.5t-165.5 -74.5q-53 0 -92 21t-58 54h-8v-59h-123zM998 105q53 0 92 39t39 101t-39 101t-92 39q-54 0 -92.5 -38.5t-38.5 -101.5t38.5 -101.5t92.5 -38.5z" />
    <glyph glyph-name="f_f_h" unicode="ffh" horiz-adv-x="1262" 
d="M112 0v378h-88v112h88v48q0 87 51 136.5t135 49.5q31 0 55 -8l-8 -123q-16 7 -39 7q-29 0 -46 -19t-17 -52v-39h185v31q0 97 51 148t148 51h248v-241l-8 -69h8q18 45 59 70.5t92 25.5q92 0 138 -56t46 -153v-297h-131v281q0 50 -24 77t-67 27q-52 0 -82.5 -42t-30.5 -104
v-239h-131v599h-116q-32 0 -50.5 -20t-18.5 -57v-32h114v-112h-114v-378h-131v378h-185v-378h-131z" />
    <glyph glyph-name="f_f_i" unicode="ffi" horiz-adv-x="939" 
d="M559 378v-378h-131v378h-185v-378h-131v378h-88v112h88v48q0 87 51 136.5t135 49.5q31 0 55 -8l-8 -123q-16 7 -39 7q-29 0 -46 -19t-17 -52v-39h185v48q0 87 51 136.5t135 49.5q31 0 55 -8l-8 -123q-16 7 -39 7q-29 0 -46 -19t-17 -52v-39h316v-490h-131v378h-185z
M809 573q-31 0 -53 22t-22 53q0 32 22 54t53 22q32 0 54.5 -22t22.5 -54q0 -31 -22.5 -53t-54.5 -22z" />
    <glyph glyph-name="f_f_j" unicode="ffj" horiz-adv-x="939" 
d="M559 378v-378h-131v378h-185v-378h-131v378h-88v112h88v48q0 87 51 136.5t135 49.5q31 0 55 -8l-8 -123q-16 7 -39 7q-29 0 -46 -19t-17 -52v-39h185v48q0 87 51 136.5t135 49.5q31 0 55 -8l-8 -123q-16 7 -39 7q-29 0 -46 -19t-17 -52v-39h316v-540q0 -90 -45 -133
t-116 -43q-46 0 -82 14l33 116q14 -9 34 -9q45 0 45 59v424h-185zM809 573q-31 0 -53 22t-22 53q0 32 22 54t53 22q32 0 54.5 -22t22.5 -54q0 -31 -22.5 -53t-54.5 -22z" />
    <glyph glyph-name="f_f_k" unicode="ffk" horiz-adv-x="1218" 
d="M744 0v599h-116q-32 0 -50.5 -20t-18.5 -57v-32h114v-112h-114v-378h-131v378h-185v-378h-131v378h-88v112h88v48q0 87 51 136.5t135 49.5q31 0 55 -8l-8 -123q-16 7 -39 7q-29 0 -46 -19t-17 -52v-39h185v31q0 97 51 148t148 51h248v-394h6l164 164h162v-8l-182 -177
l197 -297v-8h-155l-134 215l-58 -57v-158h-131z" />
    <glyph glyph-name="f_f_l" unicode="ffl" horiz-adv-x="931" 
d="M559 490h114v-112h-114v-378h-131v378h-185v-378h-131v378h-88v112h88v48q0 87 51 136.5t135 49.5q31 0 55 -8l-8 -123q-16 7 -39 7q-29 0 -46 -18.5t-17 -51.5v-40h185v31q0 97 51 148t148 51h248v-720h-131v599h-116q-33 0 -51 -20t-18 -56v-33z" />
    <glyph glyph-name="f_f_t" unicode="fft" horiz-adv-x="1035" 
d="M744 163v215h-185v-378h-131v378h-185v-378h-131v378h-88v112h88v48q0 87 51 136.5t135 49.5q31 0 55 -8l-8 -123q-16 7 -39 7q-29 0 -46 -19t-17 -52v-39h185v48q0 87 51 136.5t135 49.5q31 0 55 -8l-8 -123q-16 7 -39 7q-29 0 -46 -19t-17 -52v-39h185v150h131v-150
h120v-112h-120v-190q0 -39 17 -56q13 -16 40 -16q26 0 46 13l37 -115q-45 -22 -108 -22q-73 0 -116 43q-47 45 -47 128z" />
    <glyph glyph-name="f_h" unicode="fh" horiz-adv-x="946" 
d="M428 0v599h-116q-32 0 -50.5 -20t-18.5 -57v-32h114v-112h-114v-378h-131v378h-88v112h88v31q0 97 51 148t148 51h248v-241l-8 -69h8q18 45 59 70.5t92 25.5q92 0 138 -56t46 -153v-297h-131v281q0 50 -24 77t-67 27q-52 0 -82.5 -42t-30.5 -104v-239h-131z" />
    <glyph glyph-name="f_j" unicode="fj" horiz-adv-x="623" 
d="M112 0v378h-88v112h88v48q0 87 51 136.5t135 49.5q31 0 55 -8l-8 -123q-16 7 -39 7q-29 0 -46 -18.5t-17 -51.5v-40h316v-540q0 -90 -45 -133t-116 -43q-46 0 -82 14l33 116q14 -9 34 -9q45 0 45 59v424h-185v-378h-131zM493 573q-31 0 -53 22t-22 53q0 32 22 54t53 22
q32 0 54.5 -22t22.5 -54q0 -31 -22.5 -53t-54.5 -22z" />
    <glyph glyph-name="f_k" unicode="fk" horiz-adv-x="902" 
d="M428 0v599h-116q-32 0 -50.5 -20t-18.5 -57v-32h114v-112h-114v-378h-131v378h-88v112h88v31q0 97 51 148t148 51h248v-394h6l164 164h162v-8l-182 -177l197 -297v-8h-155l-134 215l-58 -57v-158h-131z" />
    <glyph glyph-name="f_t" unicode="ft" horiz-adv-x="719" 
d="M428 163v215h-185v-378h-131v378h-88v112h88v48q0 87 51 136.5t135 49.5q31 0 55 -8l-8 -123q-16 7 -39 7q-29 0 -46 -19t-17 -52v-39h185v150h131v-150h120v-112h-120v-190q0 -39 17 -56q13 -16 40 -16q26 0 46 13l37 -115q-45 -22 -108 -22q-73 0 -116 43
q-47 45 -47 128z" />
    <glyph glyph-name="r_f" unicode="rf" horiz-adv-x="809" 
d="M179 490v-68h8q21 37 59 59.5t85 22.5q31 0 46 -5v-130q-24 11 -57 11q-62 0 -97.5 -37.5t-35.5 -102.5v-240h-131v490h123zM710 724q54 0 95 -18l-37 -117q-20 11 -50 11q-29 0 -46 -18.5t-17 -51.5v-40h122v-112h-122v-378h-131v378h-88v112h88v48q0 87 51 136.5
t135 49.5z" />
    <glyph glyph-name="r_f_f" unicode="rff" horiz-adv-x="1125" 
d="M1026 724q54 0 95 -18l-37 -117q-20 11 -50 11q-29 0 -46 -18.5t-17 -51.5v-40h122v-112h-122v-378h-131v378h-185v-378h-131v378h-88v112h88v48q0 87 51 136.5t135 49.5q39 0 66 -10l-8 -125q-24 11 -50 11q-29 0 -46 -18.5t-17 -51.5v-40h185v48q0 87 51 136.5
t135 49.5zM179 490v-68h8q21 37 59 59.5t85 22.5q31 0 46 -5v-130q-24 11 -57 11q-62 0 -97.5 -37.5t-35.5 -102.5v-240h-131v490h123z" />
    <glyph glyph-name="r_t" unicode="rt" horiz-adv-x="813" 
d="M179 490v-68h8q21 37 59 59.5t85 22.5q31 0 46 -5v-130q-24 11 -57 11q-62 0 -97.5 -37.5t-35.5 -102.5v-240h-131v490h123zM522 163v215h-86v112h86v150h131v-150h120v-112h-120v-190q0 -39 17 -56q13 -16 40 -16q26 0 46 13l37 -115q-45 -22 -108 -22q-73 0 -116 43
q-47 45 -47 128z" />
    <glyph glyph-name="t_f" unicode="tf" horiz-adv-x="711" 
d="M612 724q54 0 95 -18l-37 -117q-20 11 -50 11q-29 0 -46 -19t-17 -52v-39h122v-112h-122v-378h-131v378h-185v-190q0 -39 17 -56q13 -16 40 -16q21 0 46 11l9 -123q-36 -12 -80 -12q-73 0 -116 43q-47 45 -47 128v215h-86v112h86v150h131v-150h185v48q0 87 51 136.5
t135 49.5z" />
    <glyph glyph-name="t_t" unicode="tt" horiz-adv-x="720" 
d="M241 378v-190q0 -39 17 -56q13 -16 40 -16q21 0 46 11l9 -123q-36 -12 -80 -12q-73 0 -116 43q-47 45 -47 128v215h-86v112h86v150h131v-150h188v150h131v-150h120v-112h-120v-190q0 -39 17 -56q13 -16 40 -16t46 13l37 -115q-45 -22 -108 -22q-73 0 -116 43
q-47 45 -47 128v215h-188z" />
    <glyph glyph-name=".notdef" horiz-adv-x="570" 
d="M72 0v716h426v-716h-426zM136 656v-596h298v596h-298z" />
    <glyph glyph-name=".null" horiz-adv-x="0" 
 />
    <glyph glyph-name="uni000D" unicode="&#xd;" horiz-adv-x="0" 
 />
    <glyph glyph-name="NULL" horiz-adv-x="0" 
 />
    <glyph glyph-name="NULL" horiz-adv-x="0" 
 />
    <glyph glyph-name="space" unicode=" " horiz-adv-x="220" 
 />
    <glyph glyph-name="exclam" unicode="!" horiz-adv-x="269" 
d="M135 -6q-36 0 -61.5 25.5t-25.5 61.5t25.5 61t61.5 25t61 -25t25 -61t-25 -61.5t-61 -25.5zM81 246l-14 264v206h135v-206l-14 -264h-107z" />
    <glyph glyph-name="quotedbl" unicode="&#x22;" horiz-adv-x="379" 
d="M335 490h-119v226h119v-226zM163 490h-119v226h119v-226z" />
    <glyph glyph-name="numbersign" unicode="#" horiz-adv-x="657" 
d="M221 0h-111l29 192h-116l17 102h114l15 105h-116l16 102h115l28 183h111l-28 -183h112l28 183h110l-27 -183h115l-16 -102h-114l-16 -105h117l-16 -102h-116l-29 -192h-110l28 192h-112zM279 401l-17 -109h116l17 109h-116z" />
    <glyph glyph-name="dollar" unicode="$" horiz-adv-x="559" 
d="M241 -100v87q-79 12 -136 60t-81 133l115 47q10 -41 37 -72t65 -43v190l-9 4q-180 68 -180 204q0 73 51.5 125.5t137.5 62.5v86h89v-88q72 -11 115.5 -51t59.5 -89l-112 -50q-16 47 -63 67v-179q96 -40 142.5 -85t46.5 -120q0 -86 -53.5 -137t-135.5 -64v-88h-89z
M175 510q0 -24 15 -41.5t51 -35.5v146q-31 -8 -48.5 -26.5t-17.5 -42.5zM391 188q0 26 -13.5 42.5t-47.5 34.5v-153q28 9 44.5 29t16.5 47z" />
    <glyph glyph-name="percent" unicode="%" horiz-adv-x="841" 
d="M32 529q0 70 51 120.5t125 50.5q75 0 126 -50t51 -121t-51 -121t-126 -50q-74 0 -125 50t-51 121zM139 529q0 -33 19.5 -53t49.5 -20t49.5 20t19.5 53t-19.5 53t-49.5 20t-49.5 -20t-19.5 -53zM238 -16l-79 53l444 663l79 -53zM456 155q0 70 51 120.5t125 50.5
q75 0 126 -50t51 -121t-51 -121t-126 -50q-74 0 -125 50t-51 121zM563 155q0 -33 19.5 -53t49.5 -20t49.5 20t19.5 53t-19.5 53t-49.5 20t-49.5 -20t-19.5 -53z" />
    <glyph glyph-name="ampersand" unicode="&#x26;" horiz-adv-x="647" 
d="M625 273l-80 -126l75 -90l-95 -73l-52 63q-71 -63 -171 -63q-113 0 -189.5 71t-76.5 180q0 60 29.5 114t82.5 92q-43 60 -43 113q0 75 52.5 126.5t133.5 51.5q69 0 113.5 -32t64.5 -86l-106 -56q-20 59 -70 59q-29 0 -46 -16.5t-17 -43.5q0 -25 26 -58l215 -262l59 96z
M308 102q56 0 92 33l-181 219q-58 -44 -58 -114q0 -62 43.5 -100t103.5 -38z" />
    <glyph glyph-name="quotesingle" unicode="'" horiz-adv-x="207" 
d="M163 490h-119v226h119v-226z" />
    <glyph glyph-name="parenleft" unicode="(" horiz-adv-x="359" 
d="M240 780l99 -68q-144 -179 -144 -390t144 -390l-99 -68q-71 78 -123.5 200t-52.5 258t52.5 258t123.5 200z" />
    <glyph glyph-name="parenright" unicode=")" horiz-adv-x="359" 
d="M20 712l99 68q70 -77 123 -200t53 -258t-53 -258t-123 -200l-99 68q144 179 144 390t-144 390z" />
    <glyph glyph-name="asterisk" unicode="*" horiz-adv-x="464" 
d="M40 547l31 89l105 -37l9 3v114h94v-114l8 -3l106 37l31 -89l-107 -38l-3 -9l72 -98l-76 -55l-74 100h-8l-74 -100l-76 55l72 98l-3 9z" />
    <glyph glyph-name="plus" unicode="+" horiz-adv-x="569" 
d="M342 499v-170h171v-116h-171v-170h-116v170h-170v116h170v170h116z" />
    <glyph glyph-name="comma" unicode="," horiz-adv-x="271" 
d="M103 -128l-59 39l59 91q-23 9 -38 30t-15 49q0 36 25.5 61t61.5 25t61 -25t25 -61q0 -30 -25 -67z" />
    <glyph glyph-name="hyphen" unicode="-" horiz-adv-x="451" 
d="M56 252v116h339v-116h-339z" />
    <glyph glyph-name="period" unicode="." horiz-adv-x="269" 
d="M135 -6q-36 0 -61.5 25.5t-25.5 61.5t25.5 61t61.5 25t61 -25t25 -61t-25 -61.5t-61 -25.5z" />
    <glyph glyph-name="slash" unicode="/" horiz-adv-x="480" 
d="M156 0h-129l297 716h129z" />
    <glyph glyph-name="zero" unicode="0" horiz-adv-x="662" 
d="M331 -16q-130 0 -208.5 101.5t-78.5 256.5t78.5 256.5t208.5 101.5t208.5 -101.5t78.5 -256.5t-78.5 -256.5t-208.5 -101.5zM331 108q71 0 113.5 65.5t42.5 168.5t-42 168.5t-114 65.5q-73 0 -114.5 -65t-41.5 -169q0 -103 41.5 -168.5t114.5 -65.5z" />
    <glyph glyph-name="one" unicode="1" horiz-adv-x="424" 
d="M340 0h-131v530l-121 -51l-48 111l201 94h99v-684z" />
    <glyph glyph-name="two" unicode="2" horiz-adv-x="545" 
d="M501 0h-455v119l109 108q127 127 141 143q37 44 50.5 68t13.5 56q0 34 -26.5 58t-70.5 24q-42 0 -68 -23.5t-36 -59.5l-119 49q19 63 77.5 110.5t147.5 47.5q102 0 164 -57t62 -143q0 -107 -108 -217l-86 -86l-77 -76l4 -6h277v-115z" />
    <glyph glyph-name="three" unicode="3" horiz-adv-x="560" 
d="M281 -16q-87 0 -153.5 46t-91.5 134l123 49q26 -101 122 -101q43 0 73.5 25.5t30.5 65.5q0 44 -32.5 69t-89.5 25h-59v119h54q44 0 74 22t30 64q0 34 -24 55.5t-65 21.5q-77 0 -100 -76l-120 49q21 60 78 104t144 44q97 0 158.5 -52t61.5 -131q0 -55 -25 -94t-61 -57v-8
q50 -20 80.5 -63t30.5 -104q0 -90 -66 -148.5t-173 -58.5z" />
    <glyph glyph-name="four" unicode="4" horiz-adv-x="616" 
d="M486 0h-130v126h-316v106l304 452h142v-436h86v-122h-86v-126zM356 248v241h-8l-163 -241h171z" />
    <glyph glyph-name="five" unicode="5" horiz-adv-x="574" 
d="M283 -16q-84 0 -152 47.5t-91 137.5l119 46q11 -51 43 -80.5t80 -29.5t80.5 32t32.5 81q0 48 -32 80.5t-81 32.5q-56 0 -96 -47l-127 58l40 342h385v-115h-276l-26 -160l8 -2q48 41 119 41q89 0 153 -64.5t64 -165.5q0 -102 -68.5 -168t-174.5 -66z" />
    <glyph glyph-name="six" unicode="6" horiz-adv-x="568" 
d="M322 440q81 0 143.5 -63.5t62.5 -158.5q0 -100 -72 -167t-170 -67q-108 0 -177 70t-69 169q0 64 24.5 119.5t72.5 124.5l166 237l101 -70l-140 -198l5 -6q21 10 53 10zM284 105q47 0 81 31.5t34 80.5t-34 81t-81 32t-81.5 -32t-34.5 -81t34.5 -80.5t81.5 -31.5z" />
    <glyph glyph-name="seven" unicode="7" horiz-adv-x="546" 
d="M183 -16l-110 61l285 509l-3 6h-315l2 124h464v-130z" />
    <glyph glyph-name="eight" unicode="8" horiz-adv-x="576" 
d="M288 -16q-109 0 -178.5 59t-69.5 147q0 57 29.5 100t75.5 67v8q-82 54 -82 142q0 83 64 138t161 55t161 -55t64 -138q0 -88 -82 -142v-8q46 -24 75.5 -67t29.5 -100q0 -88 -69.5 -147t-178.5 -59zM288 414q42 0 70 23.5t28 61.5t-27.5 61t-70.5 23t-70.5 -23t-27.5 -61
t28 -61.5t70 -23.5zM288 105q52 0 84.5 27t32.5 71q0 42 -33.5 69t-83.5 27t-83.5 -27t-33.5 -69q0 -44 32.5 -71t84.5 -27z" />
    <glyph glyph-name="nine" unicode="9" horiz-adv-x="568" 
d="M246 245q-81 0 -143.5 63t-62.5 158q0 100 72 167.5t170 67.5q108 0 177 -70t69 -169q0 -64 -24.5 -119.5t-72.5 -124.5l-166 -237l-101 69l140 199l-5 6q-21 -10 -53 -10zM284 580q-47 0 -81 -31.5t-34 -80.5t34 -81t81 -32t81.5 32t34.5 81t-34.5 80.5t-81.5 31.5z" />
    <glyph glyph-name="colon" unicode=":" horiz-adv-x="269" 
d="M135 -6q-36 0 -61.5 25.5t-25.5 61.5t25.5 61t61.5 25t61 -25t25 -61t-25 -61.5t-61 -25.5zM135 329q-36 0 -61.5 25.5t-25.5 61.5t25.5 61.5t61.5 25.5t61 -25.5t25 -61.5t-25 -61.5t-61 -25.5z" />
    <glyph glyph-name="semicolon" unicode=";" horiz-adv-x="271" 
d="M137 329q-36 0 -61.5 25.5t-25.5 61.5t25.5 61.5t61.5 25.5t61 -25.5t25 -61.5t-25 -61.5t-61 -25.5zM103 -122l-59 39l59 91q-23 9 -38 30t-15 49q0 36 25.5 61t61.5 25t61 -25t25 -61q0 -30 -25 -67z" />
    <glyph glyph-name="less" unicode="&#x3c;" horiz-adv-x="531" 
d="M471 28l-415 191v104l415 191v-129l-258 -110v-8l258 -110v-129z" />
    <glyph glyph-name="equal" unicode="=" horiz-adv-x="581" 
d="M56 361v116h469v-116h-469zM56 161v116h469v-116h-469z" />
    <glyph glyph-name="greater" unicode="&#x3e;" horiz-adv-x="531" 
d="M475 219l-415 -191v129l258 110v8l-258 110v129l415 -191v-104z" />
    <glyph glyph-name="question" unicode="?" horiz-adv-x="514" 
d="M319 246h-131v33q0 48 20 84t72 79q31 27 44 46.5t13 46.5q0 31 -23 53.5t-61 22.5q-40 0 -66.5 -24.5t-35.5 -59.5l-115 48q18 63 73.5 110t139.5 47q95 0 156 -54t61 -136q0 -52 -22.5 -89.5t-65.5 -77.5q-35 -33 -47 -55.5t-12 -57.5v-16zM252 -6q-36 0 -61 25.5
t-25 61.5t25 61t61 25t61.5 -25t25.5 -61t-25.5 -61.5t-61.5 -25.5z" />
    <glyph glyph-name="at" unicode="@" horiz-adv-x="877" 
d="M440 690q171 0 282 -111.5t111 -270.5q0 -93 -43.5 -152.5t-116.5 -59.5q-39 0 -71 19.5t-48 52.5q-45 -72 -137 -72q-82 0 -138 57.5t-56 146.5q0 88 56 146t134 58q70 0 108 -52h8v38h98v-246q0 -27 13 -44t36 -17q31 0 47 35.5t16 90.5q0 117 -85.5 203.5t-213.5 86.5
q-126 0 -211 -82.5t-85 -212.5q0 -129 87.5 -212t208.5 -83q75 0 133 33l34 -87q-77 -37 -167 -37q-172 0 -284 111.5t-112 274.5q0 162 112 274t284 112zM424 193q41 0 71 29t30 78t-30 78t-71 29q-43 0 -72 -29t-29 -78t29 -78t72 -29z" />
    <glyph glyph-name="A" unicode="A" horiz-adv-x="716" 
d="M12 0l269 716h154l269 -716h-149l-59 171h-276l-59 -171h-149zM264 295h188l-64 179l-26 87h-8l-26 -87z" />
    <glyph glyph-name="B" unicode="B" horiz-adv-x="629" 
d="M72 0v716h280q92 0 155.5 -54.5t63.5 -132.5q0 -107 -96 -154v-8q57 -21 89.5 -64t32.5 -104q0 -89 -67.5 -144t-167.5 -55h-290zM207 424h135q46 0 72 24.5t26 61.5q0 36 -25.5 60.5t-68.5 24.5h-139v-171zM207 124h150q50 0 77.5 25t27.5 66t-28.5 67t-80.5 26h-146
v-184z" />
    <glyph glyph-name="C" unicode="C" horiz-adv-x="734" 
d="M602 206l96 -91q-109 -131 -286 -131q-159 0 -267 108t-108 266t108 266t267 108q163 0 268 -117l-95 -92q-71 81 -172 81q-102 0 -171.5 -68.5t-69.5 -177.5t69.5 -177.5t171.5 -68.5q114 0 189 94z" />
    <glyph glyph-name="D" unicode="D" horiz-adv-x="719" 
d="M72 0v716h242q169 0 268.5 -98.5t99.5 -259.5t-99.5 -259.5t-268.5 -98.5h-242zM207 128h101q116 0 177.5 61.5t61.5 168.5t-61.5 168.5t-177.5 61.5h-101v-460z" />
    <glyph glyph-name="E" unicode="E" horiz-adv-x="578" 
d="M526 588h-319v-166h287v-128h-287v-166h319v-128h-454v716h454v-128z" />
    <glyph glyph-name="F" unicode="F" horiz-adv-x="558" 
d="M72 0v716h454v-128h-319v-174h287v-128h-287v-286h-135z" />
    <glyph glyph-name="G" unicode="G" horiz-adv-x="810" 
d="M412 278v115h351q7 -28 7 -63q0 -146 -87 -239q-101 -107 -268 -107q-158 0 -268 107t-110 267t110 267t268 107q170 0 273 -113l-93 -91q-73 76 -181 76q-101 0 -171.5 -68.5t-70.5 -177.5t71 -177.5t173 -68.5t164 59q39 35 57 107h-225z" />
    <glyph glyph-name="H" unicode="H" horiz-adv-x="715" 
d="M72 0v716h135v-286h301v286h135v-716h-135v302h-301v-302h-135z" />
    <glyph glyph-name="I" unicode="I" horiz-adv-x="279" 
d="M72 0v716h135v-716h-135z" />
    <glyph glyph-name="J" unicode="J" horiz-adv-x="555" 
d="M261 -16q-85 0 -148.5 46t-88.5 127l124 51q26 -96 113 -96q47 0 73 30t26 84v490h135v-489q0 -116 -66 -179.5t-168 -63.5z" />
    <glyph glyph-name="K" unicode="K" horiz-adv-x="669" 
d="M72 0v716h135v-307h8l262 307h163v-8l-259 -296l286 -404v-8h-165l-213 305l-82 -95v-210h-135z" />
    <glyph glyph-name="L" unicode="L" horiz-adv-x="534" 
d="M72 0v716h135v-588h303v-128h-438z" />
    <glyph glyph-name="M" unicode="M" horiz-adv-x="857" 
d="M72 0v716h133l219 -379h8l219 379h134v-716h-134v353l8 120h-8l-182 -321h-81l-183 321h-8l8 -120v-353h-133z" />
    <glyph glyph-name="N" unicode="N" horiz-adv-x="723" 
d="M72 0v716h157l288 -480h8l-8 138v342h134v-716h-142l-304 507h-8l8 -138v-369h-133z" />
    <glyph glyph-name="O" unicode="O" horiz-adv-x="822" 
d="M411 -16q-159 0 -266.5 108.5t-107.5 265.5t107.5 265.5t266.5 108.5t266.5 -108.5t107.5 -265.5t-107.5 -265.5t-266.5 -108.5zM411 112q101 0 170 69t69 177t-69 177t-170 69t-170 -69t-69 -177t69 -177t170 -69z" />
    <glyph glyph-name="P" unicode="P" horiz-adv-x="592" 
d="M207 0h-135v716h252q103 0 173.5 -63.5t70.5 -162.5q0 -100 -70 -163.5t-174 -63.5h-117v-263zM207 391h119q51 0 79 28.5t28 70.5t-28 70t-79 28h-119v-197z" />
    <glyph glyph-name="Q" unicode="Q" horiz-adv-x="822" 
d="M622 -67l-56 83q-75 -32 -155 -32q-159 0 -266.5 108.5t-107.5 265.5t107.5 265.5t266.5 108.5t266.5 -108.5t107.5 -265.5q0 -169 -118 -276l55 -82zM492 127l-78 117l100 68l78 -118q58 66 58 164q0 108 -69 177t-170 69t-170 -69t-69 -177t69 -177t170 -69q39 0 81 15
z" />
    <glyph glyph-name="R" unicode="R" horiz-adv-x="620" 
d="M72 0v716h261q107 0 173 -63.5t66 -162.5q0 -69 -43.5 -122.5t-109.5 -77.5l-1 -7l192 -275v-8h-155l-185 269h-63v-269h-135zM207 393h125q46 0 75.5 28t29.5 71q0 41 -27.5 70.5t-75.5 29.5h-127v-199z" />
    <glyph glyph-name="S" unicode="S" horiz-adv-x="575" 
d="M291 -16q-94 0 -166 53t-101 150l127 50q15 -57 50.5 -91t90.5 -34q45 0 77 22.5t32 62.5t-30.5 66t-108.5 54l-44 16q-68 23 -117.5 73t-49.5 125q0 86 64.5 143.5t166.5 57.5q97 0 153 -45.5t77 -106.5l-119 -50q-11 33 -38.5 55.5t-70.5 22.5q-45 0 -73.5 -20.5
t-28.5 -53.5q0 -32 27.5 -54.5t89.5 -43.5l45 -15q93 -32 142.5 -84.5t49.5 -137.5q0 -103 -75 -159t-170 -56z" />
    <glyph glyph-name="T" unicode="T" horiz-adv-x="583" 
d="M359 0h-135v588h-200v128h535v-128h-200v-588z" />
    <glyph glyph-name="U" unicode="U" horiz-adv-x="669" 
d="M334 -16q-127 0 -202.5 80.5t-75.5 220.5v431h135v-439q0 -74 37.5 -119.5t105.5 -45.5q70 0 107 45.5t37 119.5v439h135v-431q0 -135 -76 -218t-203 -83z" />
    <glyph glyph-name="V" unicode="V" horiz-adv-x="680" 
d="M265 0l-253 716h146l148 -431l26 -92h8l28 92l154 431h146l-261 -716h-142z" />
    <glyph glyph-name="W" unicode="W" horiz-adv-x="954" 
d="M214 0l-198 716h143l111 -418l16 -77h8l21 77l103 322h126l104 -322l20 -76h8l15 76l104 418h143l-190 -716h-130l-112 345l-21 79h-8l-21 -79l-112 -345h-130z" />
    <glyph glyph-name="X" unicode="X" horiz-adv-x="688" 
d="M16 0l235 374l-217 342h167l139 -234h8l139 234h167l-217 -342l235 -374h-168l-156 258h-8l-156 -258h-168z" />
    <glyph glyph-name="Y" unicode="Y" horiz-adv-x="637" 
d="M253 0v333l-241 383h161l143 -237h8l138 237h163l-237 -383v-333h-135z" />
    <glyph glyph-name="Z" unicode="Z" horiz-adv-x="596" 
d="M32 0v136l363 452h-347v128h504v-136l-359 -452h363v-128h-524z" />
    <glyph glyph-name="bracketleft" unicode="[" horiz-adv-x="352" 
d="M72 -124v916h248v-108h-120v-700h120v-108h-248z" />
    <glyph glyph-name="backslash" unicode="\" horiz-adv-x="480" 
d="M453 0h-129l-297 716h129z" />
    <glyph glyph-name="bracketright" unicode="]" horiz-adv-x="352" 
d="M280 792v-916h-248v108h120v700h-120v108h248z" />
    <glyph glyph-name="asciicircum" unicode="^" horiz-adv-x="515" 
d="M503 410h-135l-106 182h-8l-107 -182h-135l191 306h109z" />
    <glyph glyph-name="underscore" unicode="_" horiz-adv-x="499" 
d="M0 -216v116h499v-116h-499z" />
    <glyph glyph-name="grave" unicode="`" horiz-adv-x="443" 
d="M291 588h-106l-89 136h153z" />
    <glyph glyph-name="a" unicode="a" 
d="M358 0v52h-8q-57 -68 -139 -68q-78 0 -130.5 47.5t-52.5 120.5q0 75 56.5 120.5t143.5 45.5q74 0 130 -23v15q0 39 -31 64.5t-77 25.5q-68 0 -115 -57l-95 65q78 98 213 98q114 0 174 -53.5t60 -158.5v-294h-129zM358 199q-50 24 -101 24q-46 0 -72 -20t-26 -51
q0 -29 24 -47.5t57 -18.5q51 0 84.5 33.5t33.5 79.5z" />
    <glyph glyph-name="b" unicode="b" horiz-adv-x="600" 
d="M56 0v716h131v-215l-8 -70h8q19 33 58 54t92 21q96 0 165.5 -74.5t69.5 -186.5t-69.5 -186.5t-165.5 -74.5q-53 0 -92 21t-58 54h-8v-59h-123zM310 105q53 0 92 39t39 101t-39 101t-92 39q-54 0 -92.5 -38.5t-38.5 -101.5t38.5 -101.5t92.5 -38.5z" />
    <glyph glyph-name="c" unicode="c" horiz-adv-x="545" 
d="M401 177l120 -52q-73 -141 -233 -141q-113 0 -186.5 74t-73.5 187q0 114 73.5 187.5t186.5 73.5q82 0 141 -38t87 -102l-120 -50q-35 69 -110 69q-53 0 -90 -39t-37 -101t37 -101t90 -39q80 0 115 72z" />
    <glyph glyph-name="d" unicode="d" horiz-adv-x="600" 
d="M421 0v59h-8q-19 -33 -58 -54t-92 -21q-96 0 -165.5 74.5t-69.5 186.5t69.5 186.5t165.5 74.5q53 0 92 -21t58 -54h8l-8 70v215h131v-716h-123zM290 105q54 0 92.5 38.5t38.5 101.5t-38.5 101.5t-92.5 38.5q-53 0 -92 -39t-39 -101t39 -101t92 -39z" />
    <glyph glyph-name="e" unicode="e" horiz-adv-x="556" 
d="M411 172l109 -54q-75 -134 -232 -134q-112 0 -186 74t-74 187q0 108 73 184.5t182 76.5q115 0 180 -71.5t65 -185.5v-12q-1 -4 -1 -11q-1 -3 -1 -11h-369q8 -57 45.5 -86t87.5 -29q81 0 121 72zM164 308h237q-3 33 -33.5 62t-84.5 29q-42 0 -74 -24.5t-45 -66.5z" />
    <glyph glyph-name="f" unicode="f" horiz-adv-x="397" 
d="M298 724q54 0 95 -18l-37 -117q-20 11 -50 11q-29 0 -46 -18.5t-17 -51.5v-40h122v-112h-122v-378h-131v378h-88v112h88v48q0 87 51 136.5t135 49.5z" />
    <glyph glyph-name="g" unicode="g" horiz-adv-x="597" 
d="M282 -232q-95 0 -158 44.5t-84 103.5l125 50q14 -38 45.5 -60t71.5 -22q63 0 98.5 38.5t35.5 107.5v34h-8q-50 -69 -149 -69q-91 0 -161 71.5t-70 183.5t70 184t161 72q99 0 149 -69h8v53h125v-455q0 -123 -71 -195t-188 -72zM287 113q52 0 90.5 37t38.5 100t-38.5 100.5
t-90.5 37.5q-51 0 -89.5 -37.5t-38.5 -100.5t38.5 -100t89.5 -37z" />
    <glyph glyph-name="h" unicode="h" horiz-adv-x="574" 
d="M56 0v716h131v-201l-8 -89h8q21 36 61 58t88 22q93 0 139.5 -55t46.5 -154v-297h-131v281q0 50 -24 77t-67 27q-52 0 -82.5 -42t-30.5 -104v-239h-131z" />
    <glyph glyph-name="i" unicode="i" horiz-adv-x="259" 
d="M195 0h-131v490h131v-490zM130 573q-31 0 -53 22t-22 53q0 32 22 54t53 22q32 0 54.5 -22t22.5 -54q0 -31 -22.5 -53t-54.5 -22z" />
    <glyph glyph-name="j" unicode="j" horiz-adv-x="259" 
d="M-48 -212l33 116q14 -9 34 -9q45 0 45 59v536h131v-540q0 -90 -45 -133t-116 -43q-46 0 -82 14zM128 573q-31 0 -53 22t-22 53q0 32 22 54t53 22q32 0 54.5 -22t22.5 -54q0 -31 -22.5 -53t-54.5 -22z" />
    <glyph glyph-name="k" unicode="k" horiz-adv-x="530" 
d="M56 0v716h131v-390h6l164 164h162v-8l-182 -177l197 -297v-8h-155l-134 215l-58 -57v-158h-131z" />
    <glyph glyph-name="l" unicode="l" horiz-adv-x="243" 
d="M187 0h-131v716h131v-716z" />
    <glyph glyph-name="m" unicode="m" horiz-adv-x="880" 
d="M56 0v490h123v-64h8q24 37 63.5 58.5t86.5 21.5q54 0 92.5 -25t55.5 -65q57 90 167 90q87 0 131.5 -53.5t44.5 -143.5v-309h-131v285q0 100 -82 100q-50 0 -79 -41.5t-29 -105.5v-238h-131v285q0 100 -86 100q-48 0 -75.5 -41.5t-27.5 -105.5v-238h-131z" />
    <glyph glyph-name="n" unicode="n" horiz-adv-x="574" 
d="M179 490v-64h8q51 80 151 80q91 0 137.5 -56t46.5 -153v-297h-131v281q0 104 -92 104q-52 0 -82 -41.5t-30 -103.5v-240h-131v490h123z" />
    <glyph glyph-name="o" unicode="o" horiz-adv-x="576" 
d="M288 506q113 0 186.5 -73.5t73.5 -187.5t-73.5 -187.5t-186.5 -73.5t-186.5 73.5t-73.5 187.5t73.5 187.5t186.5 73.5zM288 105q53 0 91 38t38 102t-38 102t-91 38t-91 -38t-38 -102t38 -102t91 -38z" />
    <glyph glyph-name="p" unicode="p" horiz-adv-x="596" 
d="M52 -216v706h123v-59h8q19 33 58 54t92 21q96 0 165.5 -74.5t69.5 -186.5t-69.5 -186.5t-165.5 -74.5q-53 0 -92 21t-58 54h-8l8 -70v-205h-131zM306 105q53 0 92 39t39 101t-39 101t-92 39q-54 0 -92.5 -38.5t-38.5 -101.5t38.5 -101.5t92.5 -38.5z" />
    <glyph glyph-name="q" unicode="q" horiz-adv-x="596" 
d="M413 -216v205l8 70h-8q-19 -33 -58 -54t-92 -21q-96 0 -165.5 74.5t-69.5 186.5t69.5 186.5t165.5 74.5q53 0 92 -21t58 -54h8v59h123v-706h-131zM290 105q54 0 92.5 38.5t38.5 101.5t-38.5 101.5t-92.5 38.5q-53 0 -92 -39t-39 -101t39 -101t92 -39z" />
    <glyph glyph-name="r" unicode="r" horiz-adv-x="407" 
d="M56 0v490h123v-68h8q18 36 57.5 59t82.5 23q48 0 76 -18l-35 -119q-26 13 -62 13q-53 0 -86 -39.5t-33 -100.5v-240h-131z" />
    <glyph glyph-name="s" unicode="s" horiz-adv-x="483" 
d="M250 -16q-89 0 -146 40t-80 100l117 50q34 -75 109 -75q35 0 56.5 12.5t21.5 31.5q0 20 -17.5 32.5t-60.5 22.5l-69 15q-54 12 -96 48t-42 93q0 70 57 111t143 41q156 0 206 -115l-113 -46q-27 55 -95 55q-28 0 -49 -11.5t-21 -29.5q0 -16 16 -26t49 -19l75 -18
q148 -36 148 -151q0 -66 -59 -113.5t-150 -47.5z" />
    <glyph glyph-name="t" unicode="t" horiz-adv-x="401" 
d="M110 163v215h-86v112h86v150h131v-150h120v-112h-120v-190q0 -39 17 -56q13 -16 40 -16q26 0 46 13l37 -115q-45 -22 -108 -22q-73 0 -116 43q-47 45 -47 128z" />
    <glyph glyph-name="u" unicode="u" horiz-adv-x="574" 
d="M395 0v64h-8q-51 -80 -151 -80q-91 0 -137.5 55.5t-46.5 153.5v297h131v-281q0 -104 92 -104q52 0 82 41.5t30 103.5v240h131v-490h-123z" />
    <glyph glyph-name="v" unicode="v" horiz-adv-x="557" 
d="M213 0l-209 490h149l122 -312h7l123 312h148l-211 -490h-129z" />
    <glyph glyph-name="w" unicode="w" horiz-adv-x="805" 
d="M161 0l-157 490h147l81 -307h7l97 307h135l98 -307h7l80 307h145l-157 -490h-141l-98 309h-7l-98 -309h-139z" />
    <glyph glyph-name="x" unicode="x" horiz-adv-x="514" 
d="M8 0l170 249l-168 241h155l89 -136h7l84 136h160l-172 -241l172 -249h-154l-92 140h-7l-89 -140h-155z" />
    <glyph glyph-name="y" unicode="y" horiz-adv-x="553" 
d="M101 -216l109 240l-206 466h149l124 -297h7l119 297h146l-307 -706h-141z" />
    <glyph glyph-name="z" unicode="z" horiz-adv-x="479" 
d="M32 0v108l250 270h-242v112h403v-108l-250 -270h254v-112h-415z" />
    <glyph glyph-name="braceleft" unicode="{" horiz-adv-x="337" 
d="M88 59v154q0 32 -18.5 49t-45.5 17v110q27 0 45.5 17t18.5 49v154q0 85 48.5 134t134.5 49h34v-108h-16q-31 0 -52 -22t-21 -58v-146q0 -52 -16 -80.5t-54 -39.5v-8q38 -11 54 -39.5t16 -80.5v-146q0 -36 21 -58t52 -22h16v-108h-34q-86 0 -134.5 49t-48.5 134z" />
    <glyph glyph-name="bar" unicode="|" horiz-adv-x="264" 
d="M72 -120v912h120v-912h-120z" />
    <glyph glyph-name="braceright" unicode="}" horiz-adv-x="337" 
d="M67 -124h-35v108h17q31 0 51.5 22t20.5 58v146q0 52 16.5 80.5t54.5 39.5v8q-38 11 -54.5 39.5t-16.5 80.5v146q0 36 -20.5 58t-51.5 22h-17v108h35q86 0 134 -49t48 -134v-154q0 -32 18.5 -49t45.5 -17v-110q-27 0 -45.5 -17t-18.5 -49v-154q0 -85 -48 -134t-134 -49z
" />
    <glyph glyph-name="asciitilde" unicode="~" horiz-adv-x="554" 
d="M388 223q-45 0 -113 29q-70 29 -92 29q-42 0 -47 -42h-104q0 70 36 112t98 42q47 0 115 -29t90 -29q42 0 47 42h104q0 -70 -36 -112t-98 -42z" />
    <glyph glyph-name="uni00A0" unicode="&#xa0;" horiz-adv-x="220" 
 />
    <glyph glyph-name="exclamdown" unicode="&#xa1;" horiz-adv-x="269" 
d="M135 506q36 0 61 -25.5t25 -61.5t-25 -61t-61 -25t-61.5 25t-25.5 61t25.5 61.5t61.5 25.5zM67 -10l14 264h107l14 -264v-206h-135v206z" />
    <glyph glyph-name="cent" unicode="&#xa2;" horiz-adv-x="539" 
d="M237 0v87q-94 16 -151.5 85.5t-57.5 169.5t57.5 169.5t151.5 85.5v87h90v-86q128 -17 183 -137l-108 -43q-26 54 -75 68v-289q55 16 84 73l104 -45q-63 -122 -188 -140v-85h-90zM148 342q0 -52 24.5 -89t64.5 -53v283q-40 -15 -64.5 -52t-24.5 -89z" />
    <glyph glyph-name="sterling" unicode="&#xa3;" horiz-adv-x="538" 
d="M456 552l-115 -47q-20 79 -94 79q-41 0 -65.5 -26t-24.5 -64q0 -51 42 -116l21 -36h132v-100h-107q-4 -74 -51 -118l5 -8h149q55 0 72 59l102 -44q-39 -131 -172 -131h-318v106q46 18 70.5 53.5t24.5 73.5v9h-92v100h54q-18 29 -27.5 46t-19 48.5t-9.5 63.5q0 82 60 141
t154 59q86 0 138.5 -42.5t70.5 -105.5z" />
    <glyph glyph-name="currency" unicode="&#xa4;" horiz-adv-x="609" 
d="M304 106q-67 0 -122 36l-58 -57l-64 65l58 57q-34 57 -34 118q0 65 34 118l-58 58l64 64l58 -57q55 36 122 36q68 0 123 -36l58 57l64 -64l-58 -58q33 -52 33 -118q0 -65 -33 -118l58 -57l-64 -65l-58 57q-55 -36 -123 -36zM304 209q48 0 80 33.5t32 82.5t-32 82.5
t-80 33.5t-80 -33.5t-32 -82.5t32 -82.5t80 -33.5z" />
    <glyph glyph-name="yen" unicode="&#xa5;" horiz-adv-x="632" 
d="M547 312h-162v-63h162v-116h-162v-133h-135v133h-165v116h165v63h-165v116h91l-164 256h160l113 -189l29 -67h8l29 67l109 189h160l-162 -256h89v-116z" />
    <glyph glyph-name="brokenbar" unicode="&#xa6;" horiz-adv-x="264" 
d="M192 376h-120v380h120v-380zM192 -120h-120v412h120v-412z" />
    <glyph glyph-name="section" unicode="&#xa7;" horiz-adv-x="560" 
d="M286 -232q-94 0 -160.5 56t-85.5 140l120 46q13 -55 46.5 -88t82.5 -33q43 0 70 21.5t27 57.5t-31 59t-106 48l-25 8q-164 54 -164 184q0 84 74 138q-73 57 -73 140q0 80 62.5 133.5t156.5 53.5q88 0 146 -47t72 -105l-119 -47q-21 78 -100 78q-38 0 -62.5 -19t-24.5 -46
t24.5 -46t85.5 -39l30 -10q94 -32 141 -80.5t47 -127.5q0 -88 -62 -141q59 -57 59 -135q0 -88 -67 -143.5t-164 -55.5zM292 185l68 -23q29 32 29 66q0 43 -30 71t-104 52l-21 6q-50 -26 -50 -77q0 -32 26.5 -54.5t81.5 -40.5z" />
    <glyph glyph-name="dieresis" unicode="&#xa8;" horiz-adv-x="452" 
d="M321 587q-29 0 -50 21.5t-21 50.5q0 30 21 51t50 21q31 0 51.5 -21t20.5 -51t-21 -51t-51 -21zM131 587q-30 0 -51 21.5t-21 50.5q0 30 21 51t51 21t50.5 -21t20.5 -51t-20.5 -51t-50.5 -21z" />
    <glyph glyph-name="copyright" unicode="&#xa9;" horiz-adv-x="532" 
d="M266 272q-95 0 -162.5 67.5t-67.5 162.5t67.5 162.5t162.5 67.5q94 0 162 -68t68 -162q0 -95 -67.5 -162.5t-162.5 -67.5zM266 320q75 0 128.5 53.5t53.5 128.5q0 76 -53 129t-129 53q-75 0 -128.5 -53.5t-53.5 -128.5q0 -74 54 -128t128 -54zM270 383q-50 0 -84.5 35
t-34.5 84q0 50 34 84.5t85 34.5q48 0 87 -39l-32 -29q-24 24 -55 24q-30 0 -51.5 -21.5t-21.5 -53.5t21.5 -53.5t51.5 -21.5q36 0 60 31l34 -27q-36 -48 -94 -48z" />
    <glyph glyph-name="ordfeminine" unicode="&#xaa;" horiz-adv-x="495" 
d="M204 272q-69 0 -116.5 41t-47.5 107t52 106t126 40q72 0 120 -25v14q0 37 -26.5 60t-70.5 23q-65 0 -94 -51l-95 48q26 46 75.5 71.5t113.5 25.5q99 0 156.5 -48t57.5 -140v-258h-117v46h-8q-47 -60 -126 -60zM229 363q45 0 77 29t32 68q-52 22 -93 22q-43 0 -64.5 -17.5
t-21.5 -45.5q0 -26 20 -41t50 -15z" />
    <glyph glyph-name="guillemotleft" unicode="&#xab;" horiz-adv-x="610" 
d="M177 271l150 -161l-75 -69l-212 230l212 230l75 -69zM400 271l150 -161l-75 -69l-212 230l212 230l75 -69z" />
    <glyph glyph-name="logicalnot" unicode="&#xac;" horiz-adv-x="594" 
d="M48 290v114h466v-299h-115v185h-351z" />
    <glyph glyph-name="uni00AD" unicode="&#xad;" horiz-adv-x="451" 
d="M56 252v116h339v-116h-339z" />
    <glyph glyph-name="registered" unicode="&#xae;" horiz-adv-x="532" 
d="M266 272q-95 0 -162.5 67.5t-67.5 162.5t67.5 162.5t162.5 67.5q94 0 162 -68t68 -162q0 -95 -67.5 -162.5t-162.5 -67.5zM266 320q75 0 128.5 53.5t53.5 128.5q0 76 -53 129t-129 53q-75 0 -128.5 -53.5t-53.5 -128.5q0 -74 54 -128t128 -54zM235 389h-46v226h96
q30 0 51.5 -21t21.5 -51q0 -23 -14.5 -41.5t-35.5 -24.5l-2 -2l60 -84v-2h-52l-55 84h-24v-84zM235 515h46q13 0 22 8t9 20q0 11 -8.5 19.5t-21.5 8.5h-47v-56z" />
    <glyph glyph-name="overscore" unicode="&#xaf;" horiz-adv-x="416" 
d="M356 609h-296v100h296v-100z" />
    <glyph glyph-name="degree" unicode="&#xb0;" horiz-adv-x="325" 
d="M163 442q-54 0 -92.5 37.5t-38.5 91.5t38.5 91.5t92.5 37.5t92 -37.5t38 -91.5t-38 -91.5t-92 -37.5zM163 519q21 0 35.5 15.5t14.5 36.5q0 22 -14 37t-36 15q-23 0 -37 -15t-14 -37t14 -37t37 -15z" />
    <glyph glyph-name="plusminus" unicode="&#xb1;" horiz-adv-x="569" 
d="M342 565v-141h171v-108h-171v-141h-116v141h-170v108h170v141h116zM513 0h-457v116h457v-116z" />
    <glyph glyph-name="twosuperior" unicode="&#xb2;" horiz-adv-x="317" 
d="M289 350h-261v63l59 60l69 69q15 14 22 22t13 20t6 25q0 15 -11.5 25.5t-29.5 10.5q-42 0 -52 -50l-80 31q11 45 47 71.5t85 26.5q57 0 94 -30t37 -78q0 -51 -62 -113l-45 -45q-19 -19 -30 -29h139v-79z" />
    <glyph glyph-name="threesuperior" unicode="&#xb3;" horiz-adv-x="335" 
d="M165 342q-51 0 -89 25t-52 76l83 30q11 -54 58 -54q21 0 35 12t14 32t-16 31t-41 11h-38v70h34q50 0 50 38q0 15 -11.5 24.5t-27.5 9.5q-38 0 -52 -37l-78 31q29 83 132 83q54 0 89 -30t35 -73q0 -48 -43 -78q56 -30 56 -84q0 -53 -40.5 -85t-97.5 -32z" />
    <glyph glyph-name="acute" unicode="&#xb4;" horiz-adv-x="443" 
d="M257 588h-105l42 136h153z" />
    <glyph glyph-name="mu" unicode="&#xb5;" horiz-adv-x="574" 
d="M518 0h-123v54h-8q-45 -70 -127 -70q-45 0 -77 24h-8l8 -65v-159h-131v706h131v-278q0 -52 24.5 -79.5t67.5 -27.5q52 0 82 41.5t30 103.5v240h131v-490z" />
    <glyph glyph-name="paragraph" unicode="&#xb6;" horiz-adv-x="643" 
d="M383 -216h-110v512h-25q-93 0 -158.5 57.5t-65.5 152.5t65.5 152.5t158.5 57.5h315v-932h-110v825h-70v-825z" />
    <glyph glyph-name="middot" unicode="&#xb7;" horiz-adv-x="213" 
d="M107 237q-36 0 -61.5 25.5t-25.5 61.5t25.5 61.5t61.5 25.5t61 -25.5t25 -61.5t-25 -61.5t-61 -25.5z" />
    <glyph glyph-name="cedilla" unicode="&#xb8;" horiz-adv-x="411" 
d="M170 -237q-35 0 -61 18.5t-38 47.5l64 27q9 -28 35 -28q15 0 24 9.5t9 22.5q0 14 -9 24t-24 10q-13 0 -27 -14l-61 28l36 92h68l-21 -47q3 1 9 1h9q40 0 67 -25.5t27 -69.5q0 -42 -29.5 -69t-77.5 -27z" />
    <glyph glyph-name="onesuperior" unicode="&#xb9;" horiz-adv-x="272" 
d="M212 350h-89v263l-66 -29l-33 75l123 57h65v-366z" />
    <glyph glyph-name="ordmasculine" unicode="&#xba;" 
d="M267 272q-100 0 -165.5 65t-65.5 165t65.5 165t165.5 65t166 -65t66 -165t-66 -165t-166 -65zM267 381q46 0 80 34t34 87t-34 87t-80 34t-80 -34t-34 -87t34 -87t80 -34z" />
    <glyph glyph-name="guillemotright" unicode="&#xbb;" horiz-adv-x="610" 
d="M60 110l150 161l-150 161l75 69l212 -230l-212 -230zM283 110l150 161l-150 161l75 69l212 -230l-212 -230z" />
    <glyph glyph-name="onequarter" unicode="&#xbc;" horiz-adv-x="771" 
d="M667 0h-86v65h-172v64l171 237h87v-227h48v-74h-48v-65zM497 139h84v107h-8zM198 -16l-79 53l465 694l79 -53zM236 350h-89v263l-66 -29l-33 75l123 57h65v-366z" />
    <glyph glyph-name="onehalf" unicode="&#xbd;" horiz-adv-x="808" 
d="M752 0h-261v63l59 60l69 69q15 14 22 22t13 20t6 25q0 15 -11.5 25.5t-29.5 10.5q-42 0 -52 -50l-80 31q11 45 47 71.5t85 26.5q57 0 94 -30t37 -78q0 -51 -62 -113l-45 -45q-19 -19 -30 -29h139v-79zM190 -16l-79 53l465 694l79 -53zM236 350h-89v263l-66 -29l-33 75
l123 57h65v-366z" />
    <glyph glyph-name="threequarters" unicode="&#xbe;" horiz-adv-x="843" 
d="M189 342q-51 0 -89 25t-52 76l83 30q11 -54 58 -54q21 0 35 12t14 32t-16 31t-41 11h-38v70h34q50 0 50 38q0 15 -11.5 24.5t-27.5 9.5q-38 0 -52 -37l-78 31q29 83 132 83q54 0 89 -30t35 -73q0 -48 -43 -78q56 -30 56 -84q0 -53 -40.5 -85t-97.5 -32zM737 0h-86v65
h-172v64l171 237h87v-227h48v-74h-48v-65zM567 139h84v107h-8zM258 -16l-79 53l465 694l79 -53z" />
    <glyph glyph-name="questiondown" unicode="&#xbf;" horiz-adv-x="503" 
d="M184 254h131v-33q0 -48 -20.5 -83t-71.5 -80q-31 -27 -44 -46.5t-13 -46.5q0 -31 23 -53.5t61 -22.5q76 0 102 84l115 -48q-18 -63 -73.5 -110t-139.5 -47q-95 0 -156 54t-61 136q0 52 22.5 89.5t65.5 77.5q34 31 46.5 54.5t12.5 58.5v16zM250 506q36 0 61.5 -25.5
t25.5 -61.5t-25.5 -61t-61.5 -25t-61 25t-25 61t25 61.5t61 25.5z" />
    <glyph glyph-name="Agrave" unicode="&#xc0;" horiz-adv-x="716" 
d="M213 933h131l83 -148h-111zM12 0l269 716h154l269 -716h-149l-59 171h-276l-59 -171h-149zM264 295h188l-64 179l-26 87h-8l-26 -87z" />
    <glyph glyph-name="Aacute" unicode="&#xc1;" horiz-adv-x="716" 
d="M385 933h131l-103 -148h-111zM12 0l269 716h154l269 -716h-149l-59 171h-276l-59 -171h-149zM264 295h188l-64 179l-26 87h-8l-26 -87z" />
    <glyph glyph-name="Acircumflex" unicode="&#xc2;" horiz-adv-x="716" 
d="M358 837l-47 -62h-112l105 148h108l105 -148h-112zM12 0l269 716h154l269 -716h-149l-59 171h-276l-59 -171h-149zM264 295h188l-64 179l-26 87h-8l-26 -87z" />
    <glyph glyph-name="Atilde" unicode="&#xc3;" horiz-adv-x="716" 
d="M421 775q-30 0 -61 20q-7 3 -15.5 8t-13.5 7.5t-10 2.5q-21 0 -22 -28h-81q0 61 28.5 91.5t71.5 30.5q25 0 61 -19q33 -19 38 -19q22 0 23 28h81q0 -61 -28.5 -91.5t-71.5 -30.5zM12 0l269 716h154l269 -716h-149l-59 171h-276l-59 -171h-149zM264 295h188l-64 179
l-26 87h-8l-26 -87z" />
    <glyph glyph-name="Adieresis" unicode="&#xc4;" horiz-adv-x="716" 
d="M12 0l269 716h154l269 -716h-149l-59 171h-276l-59 -171h-149zM264 295h188l-64 179l-26 87h-8l-26 -87zM453 771q-29 0 -50 21.5t-21 50.5q0 30 21 51t50 21q31 0 51.5 -21t20.5 -51t-21 -51t-51 -21zM263 771q-30 0 -51 21.5t-21 50.5q0 30 21 51t51 21t50.5 -21
t20.5 -51t-20.5 -51t-50.5 -21z" />
    <glyph glyph-name="Aring" unicode="&#xc5;" horiz-adv-x="716" 
d="M12 0l251 668q-35 38 -35 88q0 54 37.5 92t92.5 38q53 0 91.5 -38t38.5 -92q0 -50 -35 -88l251 -668h-149l-59 171h-275l-60 -171h-149zM264 295h188l-64 179l-26 87h-8l-26 -87zM358 716q17 0 28.5 11.5t11.5 28.5t-11.5 28.5t-28.5 11.5t-28.5 -11.5t-11.5 -28.5
t11.5 -28.5t28.5 -11.5z" />
    <glyph glyph-name="AE" unicode="&#xc6;" horiz-adv-x="1005" 
d="M162 0h-158l418 716h531v-128h-319v-166h287v-128h-287v-166h319v-128h-454v173h-239zM455 518l-124 -217h168v287h-10z" />
    <glyph glyph-name="Ccedilla" unicode="&#xc7;" horiz-adv-x="734" 
d="M414 -237q-35 0 -61 18.5t-38 47.5l64 27q9 -28 35 -28q15 0 24 9.5t9 22.5t-9.5 23.5t-23.5 10.5t-28 -14l-60 28l31 80q-139 18 -229.5 122t-90.5 248q0 158 108 266t267 108q163 0 268 -117l-95 -92q-71 81 -172 81q-102 0 -171.5 -68.5t-69.5 -177.5t69.5 -177.5
t171.5 -68.5q114 0 189 94l96 -91q-104 -126 -275 -131l-14 -31q3 1 9 1h9q40 0 66.5 -25.5t26.5 -69.5q0 -42 -29 -69t-77 -27z" />
    <glyph glyph-name="Egrave" unicode="&#xc8;" horiz-adv-x="578" 
d="M171 933h131l83 -148h-111zM526 588h-319v-166h287v-128h-287v-166h319v-128h-454v716h454v-128z" />
    <glyph glyph-name="Eacute" unicode="&#xc9;" horiz-adv-x="578" 
d="M324 933h131l-103 -148h-111zM526 588h-319v-166h287v-128h-287v-166h319v-128h-454v716h454v-128z" />
    <glyph glyph-name="Ecircumflex" unicode="&#xca;" horiz-adv-x="578" 
d="M299 837l-47 -62h-112l105 148h108l105 -148h-112zM526 588h-319v-166h287v-128h-287v-166h319v-128h-454v716h454v-128z" />
    <glyph glyph-name="Edieresis" unicode="&#xcb;" horiz-adv-x="578" 
d="M390 771q-29 0 -50 21.5t-21 50.5q0 30 21 51t50 21q31 0 51.5 -21t20.5 -51t-21 -51t-51 -21zM200 771q-30 0 -51 21.5t-21 50.5q0 30 21 51t51 21t50.5 -21t20.5 -51t-20.5 -51t-50.5 -21zM526 588h-319v-166h287v-128h-287v-166h319v-128h-454v716h454v-128z" />
    <glyph glyph-name="Igrave" unicode="&#xcc;" horiz-adv-x="279" 
d="M-2 933h131l83 -148h-111zM72 0v716h135v-716h-135z" />
    <glyph glyph-name="Iacute" unicode="&#xcd;" horiz-adv-x="279" 
d="M158 933h131l-103 -148h-111zM72 0v716h135v-716h-135z" />
    <glyph glyph-name="Icircumflex" unicode="&#xce;" horiz-adv-x="279" 
d="M72 0v716h135v-716h-135zM-31 766v8l114 126h114l114 -126v-8h-125l-40 59h-12l-40 -59h-125z" />
    <glyph glyph-name="Idieresis" unicode="&#xcf;" horiz-adv-x="279" 
d="M53 774q-29 0 -49 20.5t-20 48.5q0 29 20 49t49 20t49 -20t20 -49q0 -28 -20 -48.5t-49 -20.5zM226 774q-28 0 -48.5 20.5t-20.5 48.5q0 29 20.5 49t48.5 20q29 0 49 -20t20 -49q0 -28 -20 -48.5t-49 -20.5zM72 0v716h135v-716h-135z" />
    <glyph glyph-name="Eth" unicode="&#xd0;" horiz-adv-x="779" 
d="M132 0v302h-76v110h76v304h242q169 0 268.5 -98.5t99.5 -259.5t-99.5 -259.5t-268.5 -98.5h-242zM267 128h101q116 0 177.5 61.5t61.5 168.5t-61.5 168.5t-177.5 61.5h-101v-176h184v-110h-184v-174z" />
    <glyph glyph-name="Ntilde" unicode="&#xd1;" horiz-adv-x="723" 
d="M72 0v716h157l288 -480h8l-8 138v342h134v-716h-142l-304 507h-8l8 -138v-369h-133zM430 771q-35 0 -72 22q-38 21 -48 21q-24 0 -26 -29h-92q0 62 33.5 95t82.5 33q35 0 73 -21q37 -22 47 -22q24 0 27 29h92q0 -62 -34 -95t-83 -33z" />
    <glyph glyph-name="Ograve" unicode="&#xd2;" horiz-adv-x="822" 
d="M290 933h131l83 -148h-111zM411 -16q-159 0 -266.5 108.5t-107.5 265.5t107.5 265.5t266.5 108.5t266.5 -108.5t107.5 -265.5t-107.5 -265.5t-266.5 -108.5zM411 112q101 0 170 69t69 177t-69 177t-170 69t-170 -69t-69 -177t69 -177t170 -69z" />
    <glyph glyph-name="Oacute" unicode="&#xd3;" horiz-adv-x="822" 
d="M445 933h131l-103 -148h-111zM411 -16q-159 0 -266.5 108.5t-107.5 265.5t107.5 265.5t266.5 108.5t266.5 -108.5t107.5 -265.5t-107.5 -265.5t-266.5 -108.5zM411 112q101 0 170 69t69 177t-69 177t-170 69t-170 -69t-69 -177t69 -177t170 -69z" />
    <glyph glyph-name="Ocircumflex" unicode="&#xd4;" horiz-adv-x="822" 
d="M411 837l-47 -62h-112l105 148h108l105 -148h-112zM411 -16q-159 0 -266.5 108.5t-107.5 265.5t107.5 265.5t266.5 108.5t266.5 -108.5t107.5 -265.5t-107.5 -265.5t-266.5 -108.5zM411 112q101 0 170 69t69 177t-69 177t-170 69t-170 -69t-69 -177t69 -177t170 -69z" />
    <glyph glyph-name="Otilde" unicode="&#xd5;" horiz-adv-x="822" 
d="M468 775q-30 0 -61 20q-7 3 -15.5 8t-13.5 7.5t-10 2.5q-21 0 -22 -28h-81q0 61 28.5 91.5t71.5 30.5q25 0 61 -19q33 -19 38 -19q22 0 23 28h81q0 -61 -28.5 -91.5t-71.5 -30.5zM411 -16q-159 0 -266.5 108.5t-107.5 265.5t107.5 265.5t266.5 108.5t266.5 -108.5
t107.5 -265.5t-107.5 -265.5t-266.5 -108.5zM411 112q101 0 170 69t69 177t-69 177t-170 69t-170 -69t-69 -177t69 -177t170 -69z" />
    <glyph glyph-name="Odieresis" unicode="&#xd6;" horiz-adv-x="822" 
d="M506 771q-29 0 -50 21.5t-21 50.5q0 30 21 51t50 21q31 0 51.5 -21t20.5 -51t-21 -51t-51 -21zM316 771q-30 0 -51 21.5t-21 50.5q0 30 21 51t51 21t50.5 -21t20.5 -51t-20.5 -51t-50.5 -21zM411 -16q-159 0 -266.5 108.5t-107.5 265.5t107.5 265.5t266.5 108.5
t266.5 -108.5t107.5 -265.5t-107.5 -265.5t-266.5 -108.5zM411 112q101 0 170 69t69 177t-69 177t-170 69t-170 -69t-69 -177t69 -177t170 -69z" />
    <glyph glyph-name="multiply" unicode="&#xd7;" horiz-adv-x="611" 
d="M60 115l163 156l-163 156l81 81l165 -158l164 158l81 -81l-163 -156l163 -156l-81 -81l-164 158l-165 -158z" />
    <glyph glyph-name="Oslash" unicode="&#xd8;" horiz-adv-x="822" 
d="M411 -16q-80 0 -151 30l-38 -61l-91 59l36 58q-61 52 -95.5 126.5t-34.5 161.5q0 157 107.5 265.5t266.5 108.5q77 0 151 -30l38 61l91 -59l-37 -59q62 -52 96.5 -126.5t34.5 -160.5q0 -157 -107.5 -265.5t-266.5 -108.5zM411 604q-101 0 -170 -69t-69 -177
q0 -106 66 -175l254 408q-36 13 -81 13zM411 112q101 0 170 69t69 177q0 105 -66 174l-255 -407q44 -13 82 -13z" />
    <glyph glyph-name="Ugrave" unicode="&#xd9;" horiz-adv-x="669" 
d="M194 933h131l83 -148h-111zM334 -16q-127 0 -202.5 80.5t-75.5 220.5v431h135v-439q0 -74 37.5 -119.5t105.5 -45.5q70 0 107 45.5t37 119.5v439h135v-431q0 -135 -76 -218t-203 -83z" />
    <glyph glyph-name="Uacute" unicode="&#xda;" horiz-adv-x="669" 
d="M361 933h131l-103 -148h-111zM334 -16q-127 0 -202.5 80.5t-75.5 220.5v431h135v-439q0 -74 37.5 -119.5t105.5 -45.5q70 0 107 45.5t37 119.5v439h135v-431q0 -135 -76 -218t-203 -83z" />
    <glyph glyph-name="Ucircumflex" unicode="&#xdb;" horiz-adv-x="669" 
d="M163 766v8l114 126h114l114 -126v-8h-125l-40 59h-12l-40 -59h-125zM334 -16q-127 0 -202.5 80.5t-75.5 220.5v431h135v-439q0 -74 37.5 -119.5t105.5 -45.5q70 0 107 45.5t37 119.5v439h135v-431q0 -135 -76 -218t-203 -83z" />
    <glyph glyph-name="Udieresis" unicode="&#xdc;" horiz-adv-x="669" 
d="M429 771q-29 0 -50 21.5t-21 50.5q0 30 21 51t50 21q31 0 51.5 -21t20.5 -51t-21 -51t-51 -21zM239 771q-30 0 -51 21.5t-21 50.5q0 30 21 51t51 21t50.5 -21t20.5 -51t-20.5 -51t-50.5 -21zM334 -16q-127 0 -202.5 80.5t-75.5 220.5v431h135v-439q0 -74 37.5 -119.5
t105.5 -45.5q70 0 107 45.5t37 119.5v439h135v-431q0 -135 -76 -218t-203 -83z" />
    <glyph glyph-name="Yacute" unicode="&#xdd;" horiz-adv-x="637" 
d="M339 933h131l-103 -148h-111zM253 0v333l-241 383h161l143 -237h8l138 237h163l-237 -383v-333h-135z" />
    <glyph glyph-name="Thorn" unicode="&#xde;" horiz-adv-x="592" 
d="M207 0h-135v716h135v-108h117q103 0 173.5 -64t70.5 -163t-70.5 -162.5t-173.5 -63.5h-117v-155zM326 480h-119v-197h119q51 0 79 28t28 70t-28 70.5t-79 28.5z" />
    <glyph glyph-name="germandbls" unicode="&#xdf;" horiz-adv-x="585" 
d="M439 391v-8q114 -49 114 -176q0 -96 -64.5 -155.5t-166.5 -59.5q-32 0 -59 4v121q20 -4 51 -4q47 0 77.5 28.5t30.5 75.5q0 46 -35 76.5t-85 30.5h-28v115h20q45 0 72 25t27 65q0 35 -26.5 58.5t-66.5 23.5q-45 0 -71 -29.5t-26 -76.5v-505h-131v507q0 98 62.5 161.5
t165.5 63.5q96 0 157.5 -53.5t61.5 -137.5q0 -49 -22.5 -88.5t-57.5 -61.5z" />
    <glyph glyph-name="agrave" unicode="&#xe0;" 
d="M136 717h131l83 -148h-111zM358 0v52h-8q-57 -68 -139 -68q-78 0 -130.5 47.5t-52.5 120.5q0 75 56.5 120.5t143.5 45.5q74 0 130 -23v15q0 39 -31 64.5t-77 25.5q-68 0 -115 -57l-95 65q78 98 213 98q114 0 174 -53.5t60 -158.5v-294h-129zM358 199q-50 24 -101 24
q-46 0 -72 -20t-26 -51q0 -29 24 -47.5t57 -18.5q51 0 84.5 33.5t33.5 79.5z" />
    <glyph glyph-name="aacute" unicode="&#xe1;" 
d="M294 717h131l-103 -148h-111zM358 0v52h-8q-57 -68 -139 -68q-78 0 -130.5 47.5t-52.5 120.5q0 75 56.5 120.5t143.5 45.5q74 0 130 -23v15q0 39 -31 64.5t-77 25.5q-68 0 -115 -57l-95 65q78 98 213 98q114 0 174 -53.5t60 -158.5v-294h-129zM358 199q-50 24 -101 24
q-46 0 -72 -20t-26 -51q0 -29 24 -47.5t57 -18.5q51 0 84.5 33.5t33.5 79.5z" />
    <glyph glyph-name="acircumflex" unicode="&#xe2;" 
d="M268 621l-47 -62h-112l105 148h108l105 -148h-112zM358 0v52h-8q-57 -68 -139 -68q-78 0 -130.5 47.5t-52.5 120.5q0 75 56.5 120.5t143.5 45.5q74 0 130 -23v15q0 39 -31 64.5t-77 25.5q-68 0 -115 -57l-95 65q78 98 213 98q114 0 174 -53.5t60 -158.5v-294h-129z
M358 199q-50 24 -101 24q-46 0 -72 -20t-26 -51q0 -29 24 -47.5t57 -18.5q51 0 84.5 33.5t33.5 79.5z" />
    <glyph glyph-name="atilde" unicode="&#xe3;" 
d="M326 559q-30 0 -61 20q-7 3 -15.5 8t-13.5 7.5t-10 2.5q-21 0 -22 -28h-81q0 61 28.5 91.5t71.5 30.5q25 0 61 -19q33 -19 38 -19q22 0 23 28h81q0 -61 -28.5 -91.5t-71.5 -30.5zM358 0v52h-8q-57 -68 -139 -68q-78 0 -130.5 47.5t-52.5 120.5q0 75 56.5 120.5
t143.5 45.5q74 0 130 -23v15q0 39 -31 64.5t-77 25.5q-68 0 -115 -57l-95 65q78 98 213 98q114 0 174 -53.5t60 -158.5v-294h-129zM358 199q-50 24 -101 24q-46 0 -72 -20t-26 -51q0 -29 24 -47.5t57 -18.5q51 0 84.5 33.5t33.5 79.5z" />
    <glyph glyph-name="adieresis" unicode="&#xe4;" 
d="M358 0v52h-8q-57 -68 -139 -68q-78 0 -130.5 47.5t-52.5 120.5q0 75 56.5 120.5t143.5 45.5q74 0 130 -23v15q0 39 -31 64.5t-77 25.5q-68 0 -115 -57l-95 65q78 98 213 98q114 0 174 -53.5t60 -158.5v-294h-129zM358 199q-50 24 -101 24q-46 0 -72 -20t-26 -51
q0 -29 24 -47.5t57 -18.5q51 0 84.5 33.5t33.5 79.5zM364 587q-29 0 -50 21.5t-21 50.5q0 30 21 51t50 21q31 0 51.5 -21t20.5 -51t-21 -51t-51 -21zM174 587q-30 0 -51 21.5t-21 50.5q0 30 21 51t51 21t50.5 -21t20.5 -51t-20.5 -51t-50.5 -21z" />
    <glyph glyph-name="aring" unicode="&#xe5;" 
d="M358 0v52h-8q-57 -68 -139 -68q-78 0 -130.5 47.5t-52.5 120.5q0 75 56.5 120.5t143.5 45.5q74 0 130 -23v15q0 39 -31 64.5t-77 25.5q-68 0 -115 -57l-95 65q78 98 213 98q114 0 174 -53.5t60 -158.5v-294h-129zM358 199q-50 24 -101 24q-46 0 -72 -20t-26 -51
q0 -29 24 -47.5t57 -18.5q51 0 84.5 33.5t33.5 79.5zM270 561q-45 0 -76.5 31.5t-31.5 76.5t31.5 76.5t76.5 31.5t76.5 -31.5t31.5 -76.5t-31.5 -76.5t-76.5 -31.5zM270 634q14 0 24.5 10.5t10.5 24.5t-10.5 24.5t-24.5 10.5t-24.5 -10.5t-10.5 -24.5t10.5 -24.5t24.5 -10.5
z" />
    <glyph glyph-name="ae" unicode="&#xe6;" horiz-adv-x="887" 
d="M619 -16q-119 0 -197 99q-76 -99 -204 -99q-83 0 -136.5 47t-53.5 121q0 75 56.5 120.5t143.5 45.5q74 0 130 -23v9q0 43 -30 69.5t-76 26.5q-72 0 -98 -56l-102 45q60 117 203 117q118 0 182 -83q67 83 178 83q115 0 179.5 -71.5t64.5 -185.5v-12q-1 -4 -1 -11
q-1 -3 -1 -11h-370q8 -56 46.5 -85.5t87.5 -29.5q80 0 122 72l108 -54q-74 -134 -232 -134zM240 86q51 0 84.5 33.5t33.5 79.5q-50 24 -101 24q-46 0 -72 -20t-26 -51q0 -29 24 -47.5t57 -18.5zM493 308h240q-5 34 -35 62.5t-84 28.5q-43 0 -75.5 -24.5t-45.5 -66.5z" />
    <glyph glyph-name="ccedilla" unicode="&#xe7;" horiz-adv-x="545" 
d="M294 -237q-35 0 -61 18.5t-38 47.5l64 27q9 -28 35 -28q15 0 24 9.5t9 22.5q0 14 -9 24t-24 10q-13 0 -27 -14l-61 28l31 81q-94 16 -151.5 86t-57.5 170q0 114 73.5 187.5t186.5 73.5q82 0 141 -38t87 -102l-120 -50q-35 69 -110 69q-53 0 -90 -39t-37 -101t37 -101
t90 -39q80 0 115 72l120 -52q-66 -131 -218 -141l-14 -31q3 1 9 1h9q40 0 67 -25.5t27 -69.5q0 -42 -29.5 -69t-77.5 -27z" />
    <glyph glyph-name="egrave" unicode="&#xe8;" horiz-adv-x="556" 
d="M150 717h131l83 -148h-111zM411 172l109 -54q-75 -134 -232 -134q-112 0 -186 74t-74 187q0 108 73 184.5t182 76.5q115 0 180 -71.5t65 -185.5v-12q-1 -4 -1 -11q-1 -3 -1 -11h-369q8 -57 45.5 -86t87.5 -29q81 0 121 72zM164 308h237q-3 33 -33.5 62t-84.5 29
q-42 0 -74 -24.5t-45 -66.5z" />
    <glyph glyph-name="eacute" unicode="&#xe9;" horiz-adv-x="556" 
d="M310 717h131l-103 -148h-111zM411 172l109 -54q-75 -134 -232 -134q-112 0 -186 74t-74 187q0 108 73 184.5t182 76.5q115 0 180 -71.5t65 -185.5v-12q-1 -4 -1 -11q-1 -3 -1 -11h-369q8 -57 45.5 -86t87.5 -29q81 0 121 72zM164 308h237q-3 33 -33.5 62t-84.5 29
q-42 0 -74 -24.5t-45 -66.5z" />
    <glyph glyph-name="ecircumflex" unicode="&#xea;" horiz-adv-x="556" 
d="M288 621l-47 -62h-112l105 148h108l105 -148h-112zM411 172l109 -54q-75 -134 -232 -134q-112 0 -186 74t-74 187q0 108 73 184.5t182 76.5q115 0 180 -71.5t65 -185.5v-12q-1 -4 -1 -11q-1 -3 -1 -11h-369q8 -57 45.5 -86t87.5 -29q81 0 121 72zM164 308h237
q-3 33 -33.5 62t-84.5 29q-42 0 -74 -24.5t-45 -66.5z" />
    <glyph glyph-name="edieresis" unicode="&#xeb;" horiz-adv-x="556" 
d="M371 587q-29 0 -50 21.5t-21 50.5q0 30 21 51t50 21q31 0 51.5 -21t20.5 -51t-21 -51t-51 -21zM181 587q-30 0 -51 21.5t-21 50.5q0 30 21 51t51 21t50.5 -21t20.5 -51t-20.5 -51t-50.5 -21zM411 172l109 -54q-75 -134 -232 -134q-112 0 -186 74t-74 187q0 108 73 184.5
t182 76.5q115 0 180 -71.5t65 -185.5v-12q-1 -4 -1 -11q-1 -3 -1 -11h-369q8 -57 45.5 -86t87.5 -29q81 0 121 72zM164 308h237q-3 33 -33.5 62t-84.5 29q-42 0 -74 -24.5t-45 -66.5z" />
    <glyph glyph-name="igrave" unicode="&#xec;" horiz-adv-x="259" 
d="M-1 717h131l63 -148h-111zM195 0h-131v490h131v-490z" />
    <glyph glyph-name="iacute" unicode="&#xed;" horiz-adv-x="259" 
d="M130 717h131l-83 -148h-111zM195 0h-131v490h131v-490z" />
    <glyph glyph-name="icircumflex" unicode="&#xee;" horiz-adv-x="259" 
d="M-41 582v8l114 126h114l114 -126v-8h-125l-40 59h-12l-40 -59h-125zM195 0h-131v490h131v-490z" />
    <glyph glyph-name="idieresis" unicode="&#xef;" horiz-adv-x="259" 
d="M45 590q-28 0 -48.5 20.5t-20.5 48.5q0 29 20.5 49t48.5 20q29 0 49 -20t20 -49q0 -28 -20 -48.5t-49 -20.5zM213 590q-28 0 -48.5 20.5t-20.5 48.5q0 29 20.5 49t48.5 20q29 0 49 -20t20 -49q0 -28 -20 -48.5t-49 -20.5zM195 0h-131v490h131v-490z" />
    <glyph glyph-name="eth" unicode="&#xf0;" horiz-adv-x="578" 
d="M115 625l41 99q103 -25 176 -70l102 45l34 -79l-60 -27q130 -126 130 -336q0 -124 -70.5 -198.5t-182.5 -74.5q-102 0 -173.5 70.5t-71.5 175.5t69.5 174.5t161.5 69.5q68 0 106 -34l7 5q-23 55 -82 101l-125 -55l-34 79l62 28q-36 14 -90 27zM287 101q50 0 85 36t35 93
t-34.5 92.5t-84.5 35.5q-51 0 -86.5 -36t-35.5 -92q0 -57 35.5 -93t85.5 -36z" />
    <glyph glyph-name="ntilde" unicode="&#xf1;" horiz-adv-x="574" 
d="M179 490v-64h8q51 80 151 80q91 0 137.5 -56t46.5 -153v-297h-131v281q0 104 -92 104q-52 0 -82 -41.5t-30 -103.5v-240h-131v490h123zM354 588q-35 0 -72 22q-38 21 -48 21q-24 0 -26 -29h-92q0 62 33.5 95t82.5 33q35 0 73 -21q37 -22 47 -22q24 0 27 29h92
q0 -62 -34 -95t-83 -33z" />
    <glyph glyph-name="ograve" unicode="&#xf2;" horiz-adv-x="576" 
d="M152 717h131l83 -148h-111zM288 506q113 0 186.5 -73.5t73.5 -187.5t-73.5 -187.5t-186.5 -73.5t-186.5 73.5t-73.5 187.5t73.5 187.5t186.5 73.5zM288 105q53 0 91 38t38 102t-38 102t-91 38t-91 -38t-38 -102t38 -102t91 -38z" />
    <glyph glyph-name="oacute" unicode="&#xf3;" horiz-adv-x="576" 
d="M322 717h131l-103 -148h-111zM288 506q113 0 186.5 -73.5t73.5 -187.5t-73.5 -187.5t-186.5 -73.5t-186.5 73.5t-73.5 187.5t73.5 187.5t186.5 73.5zM288 105q53 0 91 38t38 102t-38 102t-91 38t-91 -38t-38 -102t38 -102t91 -38z" />
    <glyph glyph-name="ocircumflex" unicode="&#xf4;" horiz-adv-x="576" 
d="M288 621l-47 -62h-112l105 148h108l105 -148h-112zM288 506q113 0 186.5 -73.5t73.5 -187.5t-73.5 -187.5t-186.5 -73.5t-186.5 73.5t-73.5 187.5t73.5 187.5t186.5 73.5zM288 105q53 0 91 38t38 102t-38 102t-91 38t-91 -38t-38 -102t38 -102t91 -38z" />
    <glyph glyph-name="otilde" unicode="&#xf5;" horiz-adv-x="576" 
d="M348 559q-30 0 -61 20q-7 3 -15.5 8t-13.5 7.5t-10 2.5q-21 0 -22 -28h-81q0 61 28.5 91.5t71.5 30.5q25 0 61 -19q33 -19 38 -19q22 0 23 28h81q0 -61 -28.5 -91.5t-71.5 -30.5zM288 506q113 0 186.5 -73.5t73.5 -187.5t-73.5 -187.5t-186.5 -73.5t-186.5 73.5
t-73.5 187.5t73.5 187.5t186.5 73.5zM288 105q53 0 91 38t38 102t-38 102t-91 38t-91 -38t-38 -102t38 -102t91 -38z" />
    <glyph glyph-name="odieresis" unicode="&#xf6;" horiz-adv-x="576" 
d="M383 587q-29 0 -50 21.5t-21 50.5q0 30 21 51t50 21q31 0 51.5 -21t20.5 -51t-21 -51t-51 -21zM193 587q-30 0 -51 21.5t-21 50.5q0 30 21 51t51 21t50.5 -21t20.5 -51t-20.5 -51t-50.5 -21zM288 506q113 0 186.5 -73.5t73.5 -187.5t-73.5 -187.5t-186.5 -73.5
t-186.5 73.5t-73.5 187.5t73.5 187.5t186.5 73.5zM288 105q53 0 91 38t38 102t-38 102t-91 38t-91 -38t-38 -102t38 -102t91 -38z" />
    <glyph glyph-name="divide" unicode="&#xf7;" horiz-adv-x="569" 
d="M513 217h-457v108h457v-108zM284 -8q-34 0 -58 24t-24 58t24 58t58 24q35 0 58.5 -24t23.5 -58t-23.5 -58t-58.5 -24zM284 386q-34 0 -58 24t-24 58t24 58t58 24q35 0 58.5 -24t23.5 -58t-23.5 -58t-58.5 -24z" />
    <glyph glyph-name="oslash" unicode="&#xf8;" horiz-adv-x="576" 
d="M288 506q50 0 94 -15l26 42l90 -51l-28 -45q78 -75 78 -192q0 -114 -73.5 -187.5t-186.5 -73.5q-45 0 -92 15l-25 -41l-90 51l26 42q-79 73 -79 194q0 114 73.5 187.5t186.5 73.5zM149 245q0 -51 24 -88l145 233q-12 4 -30 4q-57 0 -98 -41t-41 -108zM288 96q57 0 98 41
t41 108q0 48 -23 86l-145 -232q15 -3 29 -3z" />
    <glyph glyph-name="ugrave" unicode="&#xf9;" horiz-adv-x="574" 
d="M137 717h131l83 -148h-111zM395 0v64h-8q-51 -80 -151 -80q-91 0 -137.5 55.5t-46.5 153.5v297h131v-281q0 -104 92 -104q52 0 82 41.5t30 103.5v240h131v-490h-123z" />
    <glyph glyph-name="uacute" unicode="&#xfa;" horiz-adv-x="574" 
d="M307 717h131l-103 -148h-111zM395 0v64h-8q-51 -80 -151 -80q-91 0 -137.5 55.5t-46.5 153.5v297h131v-281q0 -104 92 -104q52 0 82 41.5t30 103.5v240h131v-490h-123z" />
    <glyph glyph-name="ucircumflex" unicode="&#xfb;" horiz-adv-x="574" 
d="M116 567v8l114 126h114l114 -126v-8h-125l-40 59h-12l-40 -59h-125zM395 0v64h-8q-51 -80 -151 -80q-91 0 -137.5 55.5t-46.5 153.5v297h131v-281q0 -104 92 -104q52 0 82 41.5t30 103.5v240h131v-490h-123z" />
    <glyph glyph-name="udieresis" unicode="&#xfc;" horiz-adv-x="574" 
d="M384 587q-29 0 -50 21.5t-21 50.5q0 30 21 51t50 21q31 0 51.5 -21t20.5 -51t-21 -51t-51 -21zM194 587q-30 0 -51 21.5t-21 50.5q0 30 21 51t51 21t50.5 -21t20.5 -51t-20.5 -51t-50.5 -21zM395 0v64h-8q-51 -80 -151 -80q-91 0 -137.5 55.5t-46.5 153.5v297h131v-281
q0 -104 92 -104q52 0 82 41.5t30 103.5v240h131v-490h-123z" />
    <glyph glyph-name="yacute" unicode="&#xfd;" horiz-adv-x="553" 
d="M303 717h131l-103 -148h-111zM101 -216l109 240l-206 466h149l124 -297h7l119 297h146l-307 -706h-141z" />
    <glyph glyph-name="thorn" unicode="&#xfe;" horiz-adv-x="600" 
d="M337 -16q-53 0 -92 21t-58 54h-8l8 -70v-205h-131v932h131v-215l-8 -70h8q19 33 58 54t92 21q96 0 165.5 -74.5t69.5 -186.5t-69.5 -186.5t-165.5 -74.5zM310 105q53 0 92 39t39 101t-39 101t-92 39q-54 0 -92.5 -38.5t-38.5 -101.5t38.5 -101.5t92.5 -38.5z" />
    <glyph glyph-name="ydieresis" unicode="&#xff;" horiz-adv-x="553" 
d="M101 -216l109 240l-206 466h149l124 -297h7l119 297h146l-307 -706h-141zM373 587q-29 0 -50 21.5t-21 50.5q0 30 21 51t50 21q31 0 51.5 -21t20.5 -51t-21 -51t-51 -21zM183 587q-30 0 -51 21.5t-21 50.5q0 30 21 51t51 21t50.5 -21t20.5 -51t-20.5 -51t-50.5 -21z" />
    <glyph glyph-name="Abreve" unicode="&#x102;" horiz-adv-x="716" 
d="M359 775q-73 0 -110 36t-37 98h97q0 -26 14 -39t37 -13q21 -1 35.5 12.5t14.5 39.5h97q0 -62 -37.5 -98t-110.5 -36zM281 716l-269 -716h149l59 171h276l59 -171h149l-269 716h-154zM452 295h-188l64 179l26 87h8l26 -87z" />
    <glyph glyph-name="abreve" unicode="&#x103;" 
d="M286 559q-73 0 -110 36t-37 98h97q0 -26 14 -39t37 -13q21 -1 35.5 12.5t14.5 39.5h97q0 -62 -37.5 -98t-110.5 -36zM358 52v-52h129v294q0 105 -60 158.5t-174 53.5q-135 0 -213 -98l95 -65q47 57 115 57q46 0 77 -25.5t31 -64.5v-15q-56 23 -130 23q-87 0 -143.5 -45.5
t-56.5 -120.5q0 -73 52.5 -120.5t130.5 -47.5q82 0 139 68h8zM358 199q0 -46 -33.5 -79.5t-84.5 -33.5q-33 0 -57 18.5t-24 47.5q0 31 26 51t72 20q51 0 101 -24z" />
    <glyph glyph-name="Dcroat" unicode="&#x110;" horiz-adv-x="719" 
d="M18 296v102h54v318h242q169 0 268.5 -98.5t99.5 -259.5t-99.5 -259.5t-268.5 -98.5h-242v296h-54zM207 128h101q116 0 177.5 61.5t61.5 168.5t-61.5 168.5t-177.5 61.5h-101v-190h147v-102h-147v-168z" />
    <glyph glyph-name="dcroat" unicode="&#x111;" horiz-adv-x="600" 
d="M265 545v96h148v75h131v-75h57v-96h-57v-545h-123v59h-8q-19 -33 -58 -54t-92 -21q-96 0 -165.5 74.5t-69.5 186.5t69.5 186.5t165.5 74.5q53 0 92 -21t58 -54h8l-8 70v44h-148zM290 105q54 0 92.5 38.5t38.5 101.5t-38.5 101.5t-92.5 38.5q-53 0 -92 -39t-39 -101
t39 -101t92 -39z" />
    <glyph glyph-name="Itilde" unicode="&#x128;" horiz-adv-x="279" 
d="M198 775q-30 0 -61 20q-7 3 -15.5 8t-13.5 7.5t-10 2.5q-21 0 -22 -28h-81q0 61 28.5 91.5t71.5 30.5q25 0 61 -19q33 -19 38 -19q22 0 23 28h81q0 -61 -28.5 -91.5t-71.5 -30.5zM72 0v716h135v-716h-135z" />
    <glyph glyph-name="itilde" unicode="&#x129;" horiz-adv-x="259" 
d="M177 559q-29 0 -56 20q-7 3 -15.5 8l-13 7.5t-8.5 2.5q-19 0 -20 -28h-76q0 61 26.5 91.5t66.5 30.5q24 0 56 -19q33 -19 36 -19q20 0 21 28h76q0 -61 -27 -91.5t-66 -30.5zM195 0h-131v490h131v-490z" />
    <glyph glyph-name="dotlessi" unicode="&#x131;" horiz-adv-x="259" 
d="M195 0h-131v490h131v-490z" />
    <glyph glyph-name="OE" unicode="&#x152;" horiz-adv-x="1146" 
d="M1094 588h-320v-166h288v-128h-288v-166h320v-128h-454v75h-7q-76 -91 -234 -91q-152 0 -257 108.5t-105 265.5t105 265.5t257 108.5q157 0 234 -92h7v76h454v-128zM411 112q101 0 170 69t69 177t-69 177t-170 69t-170 -69t-69 -177t69 -177t170 -69z" />
    <glyph glyph-name="oe" unicode="&#x153;" horiz-adv-x="948" 
d="M680 -16q-125 0 -196 99q-74 -99 -196 -99q-113 0 -186.5 74t-73.5 187q0 114 73.5 187.5t186.5 73.5q122 0 197 -100q72 100 190 100q115 0 180 -71.5t65 -185.5v-12q-1 -4 -1 -11q-1 -3 -1 -11h-370q8 -56 46.5 -85.5t87.5 -29.5q81 0 121 72l109 -54
q-75 -134 -232 -134zM288 105q53 0 91 38t38 102t-38 102t-91 38t-91 -38t-38 -102t38 -102t91 -38zM555 308h238q-3 33 -33.5 62t-84.5 29q-42 0 -74.5 -24.5t-45.5 -66.5z" />
    <glyph glyph-name="Utilde" unicode="&#x168;" horiz-adv-x="669" 
d="M392 775q-30 0 -61 20q-7 3 -15.5 8t-13.5 7.5t-10 2.5q-21 0 -22 -28h-81q0 61 28.5 91.5t71.5 30.5q25 0 61 -19q33 -19 38 -19q22 0 23 28h81q0 -61 -28.5 -91.5t-71.5 -30.5zM334 -16q-127 0 -202.5 80.5t-75.5 220.5v431h135v-439q0 -74 37.5 -119.5t105.5 -45.5
q70 0 107 45.5t37 119.5v439h135v-431q0 -135 -76 -218t-203 -83z" />
    <glyph glyph-name="utilde" unicode="&#x169;" horiz-adv-x="574" 
d="M337 559q-30 0 -61 20q-7 3 -15.5 8t-13.5 7.5t-10 2.5q-21 0 -22 -28h-81q0 61 28.5 91.5t71.5 30.5q25 0 61 -19q33 -19 38 -19q22 0 23 28h81q0 -61 -28.5 -91.5t-71.5 -30.5zM395 0v64h-8q-51 -80 -151 -80q-91 0 -137.5 55.5t-46.5 153.5v297h131v-281
q0 -104 92 -104q52 0 82 41.5t30 103.5v240h131v-490h-123z" />
    <glyph glyph-name="Ohorn" unicode="&#x1a0;" horiz-adv-x="822" 
d="M411 -16q-159 0 -266.5 108.5t-107.5 265.5t107.5 265.5t266.5 108.5q53 0 104 -14q10 -1 23.5 -2.5t16.5 -1.5q26 0 39 1q29 1 43 19.5t14 63.5l101 -27q-1 -66 -37 -106q-20 -22 -50 -29l13 -13q107 -107 107 -265q0 -157 -107.5 -265.5t-266.5 -108.5zM411 112
q101 0 170 69t69 177t-69 177t-170 69t-170 -69t-69 -177t69 -177t170 -69z" />
    <glyph glyph-name="ohorn" unicode="&#x1a1;" horiz-adv-x="576" 
d="M288 506q50 0 93 -15q5 0 8 -1q14 -1 38 -1q29 1 43 19.5t14 63.5l101 -27q-1 -66 -37 -106q-19 -22 -53 -30q19 -26 33 -59q20 -49 20 -105q0 -114 -73.5 -187.5t-186.5 -73.5t-186.5 73.5t-73.5 187.5t73.5 187.5t186.5 73.5zM288 105q53 0 91 38t38 102t-38 102
t-91 38t-91 -38t-38 -102t38 -102t91 -38z" />
    <glyph glyph-name="Uhorn" unicode="&#x1af;" horiz-adv-x="669" 
d="M334 -16q-127 0 -202.5 80.5t-75.5 220.5v431h135v-439q0 -74 37.5 -119.5t105.5 -45.5q70 0 107 45.5t37 119.5v439h88q20 5 31 17q15 18 15 65l101 -27q-1 -66 -37 -106q-21 -24 -63 -32v-348q0 -135 -76 -218t-203 -83z" />
    <glyph glyph-name="uhorn" unicode="&#x1b0;" horiz-adv-x="574" 
d="M395 0v64h-8q-51 -80 -151 -80q-91 0 -137.5 55.5t-46.5 153.5v297h131v-281q0 -104 92 -104q52 0 82 41.5t30 103.5v240h87q17 3 29 17q15 18 15 65l101 -27q-1 -66 -37 -106q-24 -26 -64 -33v-406h-123z" />
    <glyph glyph-name="circumflex" unicode="&#x2c6;" horiz-adv-x="456" 
d="M57 582v8l114 126h114l114 -126v-8h-125l-40 59h-12l-40 -59h-125z" />
    <glyph glyph-name="ring" unicode="&#x2da;" horiz-adv-x="408" 
d="M204 564q-45 0 -76.5 31.5t-31.5 76.5t31.5 76.5t76.5 31.5t76.5 -31.5t31.5 -76.5t-31.5 -76.5t-76.5 -31.5zM204 637q14 0 24.5 10.5t10.5 24.5t-10.5 24.5t-24.5 10.5t-24.5 -10.5t-10.5 -24.5t10.5 -24.5t24.5 -10.5z" />
    <glyph glyph-name="tilde" unicode="&#x2dc;" horiz-adv-x="419" 
d="M270 587q-35 0 -72 22q-38 21 -48 21q-24 0 -26 -29h-92q0 62 33.5 95t82.5 33q35 0 73 -21q37 -22 47 -22q24 0 27 29h92q0 -62 -34 -95t-83 -33z" />
    <glyph glyph-name="uni1EA0" unicode="&#x1ea0;" horiz-adv-x="716" 
d="M358 -243q-31 0 -53 22t-22 53q0 32 22 54t53 22q32 0 54.5 -22t22.5 -54q0 -31 -22.5 -53t-54.5 -22zM12 0l269 716h154l269 -716h-149l-59 171h-276l-59 -171h-149zM264 295h188l-64 179l-26 87h-8l-26 -87z" />
    <glyph glyph-name="uni1EA1" unicode="&#x1ea1;" 
d="M256 -243q-31 0 -53 22t-22 53q0 32 22 54t53 22q32 0 54.5 -22t22.5 -54q0 -31 -22.5 -53t-54.5 -22zM358 0v52h-8q-57 -68 -139 -68q-78 0 -130.5 47.5t-52.5 120.5q0 75 56.5 120.5t143.5 45.5q74 0 130 -23v15q0 39 -31 64.5t-77 25.5q-68 0 -115 -57l-95 65
q78 98 213 98q114 0 174 -53.5t60 -158.5v-294h-129zM358 199q-50 24 -101 24q-46 0 -72 -20t-26 -51q0 -29 24 -47.5t57 -18.5q51 0 84.5 33.5t33.5 79.5z" />
    <glyph glyph-name="uni1EA2" unicode="&#x1ea2;" horiz-adv-x="716" 
d="M406 785h-89q0 29 11 45q5 9 29 26.5t24 33.5q0 18 -26 18q-22 0 -39 -23l-75 27q30 70 120 70q51 0 81.5 -23.5t30.5 -60.5q0 -26 -9.5 -43.5t-21.5 -24.5t-23 -18.5t-13 -26.5zM12 0l269 716h154l269 -716h-149l-59 171h-276l-59 -171h-149zM264 295h188l-64 179
l-26 87h-8l-26 -87z" />
    <glyph glyph-name="uni1EA3" unicode="&#x1ea3;" 
d="M328 569h-89q0 29 11 45q5 9 29 26.5t24 33.5q0 18 -26 18q-22 0 -39 -23l-75 27q30 70 120 70q51 0 81.5 -23.5t30.5 -60.5q0 -26 -9.5 -43.5t-21.5 -24.5t-23 -18.5t-13 -26.5zM358 0v52h-8q-57 -68 -139 -68q-78 0 -130.5 47.5t-52.5 120.5q0 75 56.5 120.5
t143.5 45.5q74 0 130 -23v15q0 39 -31 64.5t-77 25.5q-68 0 -115 -57l-95 65q78 98 213 98q114 0 174 -53.5t60 -158.5v-294h-129zM358 199q-50 24 -101 24q-46 0 -72 -20t-26 -51q0 -29 24 -47.5t57 -18.5q51 0 84.5 33.5t33.5 79.5z" />
    <glyph glyph-name="uni1EA4" unicode="&#x1ea4;" horiz-adv-x="716" 
d="M12 0l269 716h154l269 -716h-149l-59 171h-276l-59 -171h-149zM264 295h188l-64 179l-26 87h-8l-26 -87zM358 831l-47 -56h-112l105 132h108l105 -132h-112zM546 994h131l-87 -117h-111z" />
    <glyph glyph-name="uni1EA5" unicode="&#x1ea5;" 
d="M268 615l-47 -56h-112l105 132h108l105 -132h-112zM358 0v52h-8q-57 -68 -139 -68q-78 0 -130.5 47.5t-52.5 120.5q0 75 56.5 120.5t143.5 45.5q74 0 130 -23v15q0 39 -31 64.5t-77 25.5q-68 0 -115 -57l-95 65q78 98 213 98q114 0 174 -53.5t60 -158.5v-294h-129z
M358 199q-50 24 -101 24q-46 0 -72 -20t-26 -51q0 -29 24 -47.5t57 -18.5q51 0 84.5 33.5t33.5 79.5zM456 778h131l-87 -117h-111z" />
    <glyph glyph-name="uni1EA6" unicode="&#x1ea6;" horiz-adv-x="716" 
d="M12 0l269 716h154l269 -716h-149l-59 171h-276l-59 -171h-149zM264 295h188l-64 179l-26 87h-8l-26 -87zM358 831l-47 -56h-112l105 132h108l105 -132h-112zM402 994h131l67 -117h-111z" />
    <glyph glyph-name="uni1EA7" unicode="&#x1ea7;" 
d="M268 615l-47 -56h-112l105 132h108l105 -132h-112zM358 0v52h-8q-57 -68 -139 -68q-78 0 -130.5 47.5t-52.5 120.5q0 75 56.5 120.5t143.5 45.5q74 0 130 -23v15q0 39 -31 64.5t-77 25.5q-68 0 -115 -57l-95 65q78 98 213 98q114 0 174 -53.5t60 -158.5v-294h-129z
M358 199q-50 24 -101 24q-46 0 -72 -20t-26 -51q0 -29 24 -47.5t57 -18.5q51 0 84.5 33.5t33.5 79.5zM312 778h131l67 -117h-111z" />
    <glyph glyph-name="uni1EA8" unicode="&#x1ea8;" horiz-adv-x="716" 
d="M12 0l269 716h154l269 -716h-149l-59 171h-276l-59 -171h-149zM264 295h188l-64 179l-26 87h-8l-26 -87zM358 831l-47 -56h-112l105 132h108l105 -132h-112zM560 867h-77q0 24 9 39q5 8 23 21.5t18 23.5q0 15 -18 15q-22 0 -32 -24l-66 24q23 62 103 62q42 0 67.5 -19.5
t25.5 -49.5q0 -35 -25.5 -56t-27.5 -36z" />
    <glyph glyph-name="uni1EA9" unicode="&#x1ea9;" 
d="M268 615l-47 -56h-112l105 132h108l105 -132h-112zM358 0v52h-8q-57 -68 -139 -68q-78 0 -130.5 47.5t-52.5 120.5q0 75 56.5 120.5t143.5 45.5q74 0 130 -23v15q0 39 -31 64.5t-77 25.5q-68 0 -115 -57l-95 65q78 98 213 98q114 0 174 -53.5t60 -158.5v-294h-129z
M358 199q-50 24 -101 24q-46 0 -72 -20t-26 -51q0 -29 24 -47.5t57 -18.5q51 0 84.5 33.5t33.5 79.5zM470 651h-77q0 24 9 39q5 8 23 21.5t18 23.5q0 15 -18 15q-21 0 -32 -24l-66 24q23 62 103 62q42 0 67.5 -19.5t25.5 -49.5q0 -35 -25.5 -56t-27.5 -36z" />
    <glyph glyph-name="uni1EAA" unicode="&#x1eaa;" horiz-adv-x="716" 
d="M358 827l-47 -52h-112l105 122h108l105 -122h-112zM12 0l269 716h154l269 -716h-149l-59 171h-276l-59 -171h-149zM264 295h188l-64 179l-26 87h-8l-26 -87zM420 921q-29 0 -61 17q-7 3 -15.5 7.5t-13.5 6.5t-10 2q-20 0 -22 -24h-81q0 52 28.5 78t71.5 26q27 0 61 -16
q36 -17 38 -17q22 0 23 24h81q0 -52 -28.5 -78t-71.5 -26z" />
    <glyph glyph-name="uni1EAB" unicode="&#x1eab;" 
d="M268 611l-47 -52h-112l105 122h108l105 -122h-112zM358 0v52h-8q-57 -68 -139 -68q-78 0 -130.5 47.5t-52.5 120.5q0 75 56.5 120.5t143.5 45.5q74 0 130 -23v15q0 39 -31 64.5t-77 25.5q-68 0 -115 -57l-95 65q78 98 213 98q114 0 174 -53.5t60 -158.5v-294h-129z
M358 199q-50 24 -101 24q-46 0 -72 -20t-26 -51q0 -29 24 -47.5t57 -18.5q51 0 84.5 33.5t33.5 79.5zM330 711q-29 0 -61 17q-7 3 -15.5 7.5t-13.5 6.5t-10 2q-20 0 -22 -24h-81q0 52 28.5 78t71.5 26q27 0 61 -16q36 -17 38 -17q22 0 23 24h81q0 -52 -28.5 -78t-71.5 -26z
" />
    <glyph glyph-name="uni1EAC" unicode="&#x1eac;" horiz-adv-x="716" 
d="M358 -243q-31 0 -53 22t-22 53q0 32 22 54t53 22q32 0 54.5 -22t22.5 -54q0 -31 -22.5 -53t-54.5 -22zM358 837l-47 -62h-112l105 148h108l105 -148h-112zM12 0l269 716h154l269 -716h-149l-59 171h-276l-59 -171h-149zM264 295h188l-64 179l-26 87h-8l-26 -87z" />
    <glyph glyph-name="uni1EAD" unicode="&#x1ead;" 
d="M256 -243q-31 0 -53 22t-22 53q0 32 22 54t53 22q32 0 54.5 -22t22.5 -54q0 -31 -22.5 -53t-54.5 -22zM268 621l-47 -62h-112l105 148h108l105 -148h-112zM358 0v52h-8q-57 -68 -139 -68q-78 0 -130.5 47.5t-52.5 120.5q0 75 56.5 120.5t143.5 45.5q74 0 130 -23v15
q0 39 -31 64.5t-77 25.5q-68 0 -115 -57l-95 65q78 98 213 98q114 0 174 -53.5t60 -158.5v-294h-129zM358 199q-50 24 -101 24q-46 0 -72 -20t-26 -51q0 -29 24 -47.5t57 -18.5q51 0 84.5 33.5t33.5 79.5z" />
    <glyph glyph-name="uni1EAE" unicode="&#x1eae;" horiz-adv-x="716" 
d="M12 0l269 716h154l269 -716h-149l-59 171h-276l-59 -171h-149zM264 295h188l-64 179l-26 87h-8l-26 -87zM359 775q-73 0 -110 31.5t-37 85.5h97q0 -22 14 -34t37 -12q22 0 36 12t14 34h97q0 -54 -37.5 -85.5t-110.5 -31.5zM363 1031h131l-87 -117h-111z" />
    <glyph glyph-name="uni1EAF" unicode="&#x1eaf;" 
d="M358 0v52h-8q-57 -68 -139 -68q-78 0 -130.5 47.5t-52.5 120.5q0 75 56.5 120.5t143.5 45.5q74 0 130 -23v15q0 39 -31 64.5t-77 25.5q-68 0 -115 -57l-95 65q78 98 213 98q114 0 174 -53.5t60 -158.5v-294h-129zM358 199q-50 24 -101 24q-46 0 -72 -20t-26 -51
q0 -29 24 -47.5t57 -18.5q51 0 84.5 33.5t33.5 79.5zM286 559q-73 0 -110 31.5t-37 85.5h97q0 -22 14 -34t37 -12q22 0 36 12t14 34h97q0 -54 -37.5 -85.5t-110.5 -31.5zM290 815h131l-87 -117h-111z" />
    <glyph glyph-name="uni1EB0" unicode="&#x1eb0;" horiz-adv-x="716" 
d="M12 0l269 716h154l269 -716h-149l-59 171h-276l-59 -171h-149zM264 295h188l-64 179l-26 87h-8l-26 -87zM359 775q-73 0 -110 31.5t-37 85.5h97q0 -22 14 -34t37 -12q22 0 36 12t14 34h97q0 -54 -37.5 -85.5t-110.5 -31.5zM222 1031h131l67 -117h-111z" />
    <glyph glyph-name="uni1EB1" unicode="&#x1eb1;" 
d="M358 0v52h-8q-57 -68 -139 -68q-78 0 -130.5 47.5t-52.5 120.5q0 75 56.5 120.5t143.5 45.5q74 0 130 -23v15q0 39 -31 64.5t-77 25.5q-68 0 -115 -57l-95 65q78 98 213 98q114 0 174 -53.5t60 -158.5v-294h-129zM358 199q-50 24 -101 24q-46 0 -72 -20t-26 -51
q0 -29 24 -47.5t57 -18.5q51 0 84.5 33.5t33.5 79.5zM286 559q-73 0 -110 31.5t-37 85.5h97q0 -22 14 -34t37 -12q22 0 36 12t14 34h97q0 -54 -37.5 -85.5t-110.5 -31.5zM149 815h131l67 -117h-111z" />
    <glyph glyph-name="uni1EB2" unicode="&#x1eb2;" horiz-adv-x="716" 
d="M12 0l269 716h154l269 -716h-149l-59 171h-276l-59 -171h-149zM264 295h188l-64 179l-26 87h-8l-26 -87zM402 908h-82q0 21 10 36q5 7 24.5 20t19.5 22q0 14 -20 14q-22 0 -34 -23l-70 23q25 57 110 57q45 0 72 -18t27 -46q0 -20 -8 -33t-18 -18t-19.5 -14t-11.5 -20z
M359 775q-73 0 -110 30.5t-37 83.5h97q0 -44 51 -44q22 -1 36 10.5t14 33.5h97q0 -53 -37.5 -83.5t-110.5 -30.5z" />
    <glyph glyph-name="uni1EB3" unicode="&#x1eb3;" 
d="M358 0v52h-8q-57 -68 -139 -68q-78 0 -130.5 47.5t-52.5 120.5q0 75 56.5 120.5t143.5 45.5q74 0 130 -23v15q0 39 -31 64.5t-77 25.5q-68 0 -115 -57l-95 65q78 98 213 98q114 0 174 -53.5t60 -158.5v-294h-129zM358 199q-50 24 -101 24q-46 0 -72 -20t-26 -51
q0 -29 24 -47.5t57 -18.5q51 0 84.5 33.5t33.5 79.5zM329 692h-82q0 21 10 36q5 7 24.5 20t19.5 22q0 14 -20 14q-22 0 -34 -23l-70 23q25 57 110 57q45 0 72 -18t27 -46q0 -20 -8 -33t-18 -18t-19.5 -14t-11.5 -20zM286 559q-73 0 -110 30.5t-37 83.5h97q0 -44 51 -44
q22 -1 36 10.5t14 33.5h97q0 -53 -37.5 -83.5t-110.5 -30.5z" />
    <glyph glyph-name="uni1EB4" unicode="&#x1eb4;" horiz-adv-x="716" 
d="M12 0l269 716h154l269 -716h-149l-59 171h-276l-59 -171h-149zM264 295h188l-64 179l-26 87h-8l-26 -87zM415 918q-27 0 -61 16q-7 3 -15.5 7.5t-13.5 6.5t-10 2q-21 0 -22 -25h-81q0 52 28 77t72 25q25 0 61 -15q36 -17 38 -17q22 0 23 25h81q0 -51 -28.5 -76.5
t-71.5 -25.5zM359 775q-73 0 -110 31.5t-37 85.5h97q0 -22 14 -34t37 -12q22 0 36 12t14 34h97q0 -54 -37.5 -85.5t-110.5 -31.5z" />
    <glyph glyph-name="uni1EB5" unicode="&#x1eb5;" 
d="M358 0v52h-8q-57 -68 -139 -68q-78 0 -130.5 47.5t-52.5 120.5q0 75 56.5 120.5t143.5 45.5q74 0 130 -23v15q0 39 -31 64.5t-77 25.5q-68 0 -115 -57l-95 65q78 98 213 98q114 0 174 -53.5t60 -158.5v-294h-129zM358 199q-50 24 -101 24q-46 0 -72 -20t-26 -51
q0 -29 24 -47.5t57 -18.5q51 0 84.5 33.5t33.5 79.5zM342 702q-27 0 -61 16q-7 3 -15.5 7.5t-13.5 6.5t-10 2q-21 0 -22 -25h-81q0 52 28 77t72 25q25 0 61 -15q36 -17 38 -17q22 0 23 25h81q0 -51 -28.5 -76.5t-71.5 -25.5zM286 559q-73 0 -110 31.5t-37 85.5h97
q0 -22 14 -34t37 -12q22 0 36 12t14 34h97q0 -54 -37.5 -85.5t-110.5 -31.5z" />
    <glyph glyph-name="uni1EB6" unicode="&#x1eb6;" horiz-adv-x="716" 
d="M358 -243q32 0 54.5 22t22.5 53q0 32 -22.5 54t-54.5 22q-31 0 -53 -22t-22 -54q0 -31 22 -53t53 -22zM359 775q-73 0 -110 36t-37 98h97q0 -26 14 -39t37 -13q21 -1 35.5 12.5t14.5 39.5h97q0 -62 -37.5 -98t-110.5 -36zM281 716l-269 -716h149l59 171h276l59 -171h149
l-269 716h-154zM452 295h-188l64 179l26 87h8l26 -87z" />
    <glyph glyph-name="uni1EB7" unicode="&#x1eb7;" 
d="M256 -243q32 0 54.5 22t22.5 53q0 32 -22.5 54t-54.5 22q-31 0 -53 -22t-22 -54q0 -31 22 -53t53 -22zM286 559q-73 0 -110 36t-37 98h97q0 -26 14 -39t37 -13q21 -1 35.5 12.5t14.5 39.5h97q0 -62 -37.5 -98t-110.5 -36zM358 52v-52h129v294q0 105 -60 158.5t-174 53.5
q-135 0 -213 -98l95 -65q47 57 115 57q46 0 77 -25.5t31 -64.5v-15q-56 23 -130 23q-87 0 -143.5 -45.5t-56.5 -120.5q0 -73 52.5 -120.5t130.5 -47.5q82 0 139 68h8zM358 199q0 -46 -33.5 -79.5t-84.5 -33.5q-33 0 -57 18.5t-24 47.5q0 31 26 51t72 20q51 0 101 -24z" />
    <glyph glyph-name="uni1EB8" unicode="&#x1eb8;" horiz-adv-x="578" 
d="M292 -243q-31 0 -53 22t-22 53q0 32 22 54t53 22q32 0 54.5 -22t22.5 -54q0 -31 -22.5 -53t-54.5 -22zM526 588h-319v-166h287v-128h-287v-166h319v-128h-454v716h454v-128z" />
    <glyph glyph-name="uni1EB9" unicode="&#x1eb9;" horiz-adv-x="556" 
d="M281 -243q-31 0 -53 22t-22 53q0 32 22 54t53 22q32 0 54.5 -22t22.5 -54q0 -31 -22.5 -53t-54.5 -22zM411 172l109 -54q-75 -134 -232 -134q-112 0 -186 74t-74 187q0 108 73 184.5t182 76.5q115 0 180 -71.5t65 -185.5v-12q-1 -4 -1 -11q-1 -3 -1 -11h-369
q8 -57 45.5 -86t87.5 -29q81 0 121 72zM164 308h237q-3 33 -33.5 62t-84.5 29q-42 0 -74 -24.5t-45 -66.5z" />
    <glyph glyph-name="uni1EBA" unicode="&#x1eba;" horiz-adv-x="578" 
d="M357 785h-89q0 29 11 45q5 9 29 26.5t24 33.5q0 18 -26 18q-22 0 -39 -23l-75 27q30 70 120 70q51 0 81.5 -23.5t30.5 -60.5q0 -26 -9.5 -43.5t-21.5 -24.5t-23 -18.5t-13 -26.5zM526 588h-319v-166h287v-128h-287v-166h319v-128h-454v716h454v-128z" />
    <glyph glyph-name="uni1EBB" unicode="&#x1ebb;" horiz-adv-x="556" 
d="M338 569h-89q0 29 11 45q5 9 29 26.5t24 33.5q0 18 -26 18q-22 0 -39 -23l-75 27q30 70 120 70q51 0 81.5 -23.5t30.5 -60.5q0 -26 -9.5 -43.5t-21.5 -24.5t-23 -18.5t-13 -26.5zM411 172l109 -54q-75 -134 -232 -134q-112 0 -186 74t-74 187q0 108 73 184.5t182 76.5
q115 0 180 -71.5t65 -185.5v-12q-1 -4 -1 -11q-1 -3 -1 -11h-369q8 -57 45.5 -86t87.5 -29q81 0 121 72zM164 308h237q-3 33 -33.5 62t-84.5 29q-42 0 -74 -24.5t-45 -66.5z" />
    <glyph glyph-name="uni1EBC" unicode="&#x1ebc;" horiz-adv-x="578" 
d="M357 775q-30 0 -61 20q-7 3 -15.5 8t-13.5 7.5t-10 2.5q-21 0 -22 -28h-81q0 61 28.5 91.5t71.5 30.5q25 0 61 -19q33 -19 38 -19q22 0 23 28h81q0 -61 -28.5 -91.5t-71.5 -30.5zM526 588h-319v-166h287v-128h-287v-166h319v-128h-454v716h454v-128z" />
    <glyph glyph-name="uni1EBD" unicode="&#x1ebd;" horiz-adv-x="556" 
d="M342 559q-30 0 -61 20q-7 3 -15.5 8t-13.5 7.5t-10 2.5q-21 0 -22 -28h-81q0 61 28.5 91.5t71.5 30.5q25 0 61 -19q33 -19 38 -19q22 0 23 28h81q0 -61 -28.5 -91.5t-71.5 -30.5zM411 172l109 -54q-75 -134 -232 -134q-112 0 -186 74t-74 187q0 108 73 184.5t182 76.5
q115 0 180 -71.5t65 -185.5v-12q-1 -4 -1 -11q-1 -3 -1 -11h-369q8 -57 45.5 -86t87.5 -29q81 0 121 72zM164 308h237q-3 33 -33.5 62t-84.5 29q-42 0 -74 -24.5t-45 -66.5z" />
    <glyph glyph-name="uni1EBE" unicode="&#x1ebe;" horiz-adv-x="578" 
d="M299 831l-47 -56h-112l105 132h108l105 -132h-112zM526 588h-319v-166h287v-128h-287v-166h319v-128h-454v716h454v-128zM487 994h131l-87 -117h-111z" />
    <glyph glyph-name="uni1EBF" unicode="&#x1ebf;" horiz-adv-x="556" 
d="M288 615l-47 -56h-112l105 132h108l105 -132h-112zM411 172l109 -54q-75 -134 -232 -134q-112 0 -186 74t-74 187q0 108 73 184.5t182 76.5q115 0 180 -71.5t65 -185.5v-12q-1 -4 -1 -11q-1 -3 -1 -11h-369q8 -57 45.5 -86t87.5 -29q81 0 121 72zM164 308h237
q-3 33 -33.5 62t-84.5 29q-42 0 -74 -24.5t-45 -66.5zM476 778h131l-87 -117h-111z" />
    <glyph glyph-name="uni1EC0" unicode="&#x1ec0;" horiz-adv-x="578" 
d="M299 831l-47 -56h-112l105 132h108l105 -132h-112zM526 588h-319v-166h287v-128h-287v-166h319v-128h-454v716h454v-128zM343 994h131l67 -117h-111z" />
    <glyph glyph-name="uni1EC1" unicode="&#x1ec1;" horiz-adv-x="556" 
d="M288 615l-47 -56h-112l105 132h108l105 -132h-112zM411 172l109 -54q-75 -134 -232 -134q-112 0 -186 74t-74 187q0 108 73 184.5t182 76.5q115 0 180 -71.5t65 -185.5v-12q-1 -4 -1 -11q-1 -3 -1 -11h-369q8 -57 45.5 -86t87.5 -29q81 0 121 72zM164 308h237
q-3 33 -33.5 62t-84.5 29q-42 0 -74 -24.5t-45 -66.5zM332 778h131l67 -117h-111z" />
    <glyph glyph-name="uni1EC2" unicode="&#x1ec2;" horiz-adv-x="578" 
d="M299 831l-47 -56h-112l105 132h108l105 -132h-112zM526 588h-319v-166h287v-128h-287v-166h319v-128h-454v716h454v-128zM501 867h-77q0 24 9 39q5 8 23 21.5t18 23.5q0 15 -18 15q-22 0 -32 -24l-66 24q23 62 103 62q42 0 67.5 -19.5t25.5 -49.5q0 -35 -25.5 -56
t-27.5 -36z" />
    <glyph glyph-name="uni1EC3" unicode="&#x1ec3;" horiz-adv-x="556" 
d="M288 615l-47 -56h-112l105 132h108l105 -132h-112zM411 172l109 -54q-75 -134 -232 -134q-112 0 -186 74t-74 187q0 108 73 184.5t182 76.5q115 0 180 -71.5t65 -185.5v-12q-1 -4 -1 -11q-1 -3 -1 -11h-369q8 -57 45.5 -86t87.5 -29q81 0 121 72zM164 308h237
q-3 33 -33.5 62t-84.5 29q-42 0 -74 -24.5t-45 -66.5zM490 651h-77q0 24 9 39q5 8 23 21.5t18 23.5q0 15 -18 15q-21 0 -32 -24l-66 24q23 62 103 62q42 0 67.5 -19.5t25.5 -49.5q0 -35 -25.5 -56t-27.5 -36z" />
    <glyph glyph-name="uni1EC4" unicode="&#x1ec4;" horiz-adv-x="578" 
d="M299 827l-47 -52h-112l105 122h108l105 -122h-112zM526 588h-319v-166h287v-128h-287v-166h319v-128h-454v716h454v-128zM361 921q-29 0 -61 17q-7 3 -15.5 7.5t-13.5 6.5t-10 2q-21 0 -22 -24h-81q0 52 28.5 78t71.5 26q27 0 61 -16q36 -17 38 -17q21 0 23 24h81
q0 -52 -28.5 -78t-71.5 -26z" />
    <glyph glyph-name="uni1EC5" unicode="&#x1ec5;" horiz-adv-x="556" 
d="M288 611l-47 -52h-112l105 122h108l105 -122h-112zM411 172l109 -54q-75 -134 -232 -134q-112 0 -186 74t-74 187q0 108 73 184.5t182 76.5q115 0 180 -71.5t65 -185.5v-12q-1 -4 -1 -11q-1 -3 -1 -11h-369q8 -57 45.5 -86t87.5 -29q81 0 121 72zM164 308h237
q-3 33 -33.5 62t-84.5 29q-42 0 -74 -24.5t-45 -66.5zM350 711q-29 0 -61 17q-7 3 -15.5 7.5t-13.5 6.5t-10 2q-20 0 -22 -24h-81q0 52 28.5 78t71.5 26q27 0 61 -16q36 -17 38 -17q22 0 23 24h81q0 -52 -28.5 -78t-71.5 -26z" />
    <glyph glyph-name="uni1EC6" unicode="&#x1ec6;" horiz-adv-x="578" 
d="M292 -243q-31 0 -53 22t-22 53q0 32 22 54t53 22q32 0 54.5 -22t22.5 -54q0 -31 -22.5 -53t-54.5 -22zM299 837l-47 -62h-112l105 148h108l105 -148h-112zM526 588h-319v-166h287v-128h-287v-166h319v-128h-454v716h454v-128z" />
    <glyph glyph-name="uni1EC7" unicode="&#x1ec7;" horiz-adv-x="556" 
d="M281 -243q-31 0 -53 22t-22 53q0 32 22 54t53 22q32 0 54.5 -22t22.5 -54q0 -31 -22.5 -53t-54.5 -22zM288 621l-47 -62h-112l105 148h108l105 -148h-112zM411 172l109 -54q-75 -134 -232 -134q-112 0 -186 74t-74 187q0 108 73 184.5t182 76.5q115 0 180 -71.5
t65 -185.5v-12q-1 -4 -1 -11q-1 -3 -1 -11h-369q8 -57 45.5 -86t87.5 -29q81 0 121 72zM164 308h237q-3 33 -33.5 62t-84.5 29q-42 0 -74 -24.5t-45 -66.5z" />
    <glyph glyph-name="uni1EC8" unicode="&#x1ec8;" horiz-adv-x="279" 
d="M186 785h-89q0 29 11 45q5 9 29 26.5t24 33.5q0 18 -26 18q-22 0 -39 -23l-75 27q30 70 120 70q51 0 81.5 -23.5t30.5 -60.5q0 -26 -9.5 -43.5t-21.5 -24.5t-23 -18.5t-13 -26.5zM72 0v716h135v-716h-135z" />
    <glyph glyph-name="uni1EC9" unicode="&#x1ec9;" horiz-adv-x="259" 
d="M176 569h-89q0 29 11 45q5 9 29 26.5t24 33.5q0 18 -26 18q-22 0 -39 -23l-75 27q30 70 120 70q51 0 81.5 -23.5t30.5 -60.5q0 -26 -9.5 -43.5t-21.5 -24.5t-23 -18.5t-13 -26.5zM195 0h-131v490h131v-490z" />
    <glyph glyph-name="uni1ECA" unicode="&#x1eca;" horiz-adv-x="279" 
d="M72 0v716h135v-716h-135zM139 -243q-31 0 -53 22t-22 53q0 32 22 54t53 22q32 0 54.5 -22t22.5 -54q0 -31 -22.5 -53t-54.5 -22z" />
    <glyph glyph-name="uni1ECB" unicode="&#x1ecb;" horiz-adv-x="259" 
d="M128 -243q-31 0 -53 22t-22 53q0 32 22 54t53 22q32 0 54.5 -22t22.5 -54q0 -31 -22.5 -53t-54.5 -22zM195 0h-131v490h131v-490zM130 573q-31 0 -53 22t-22 53q0 32 22 54t53 22q32 0 54.5 -22t22.5 -54q0 -31 -22.5 -53t-54.5 -22z" />
    <glyph glyph-name="uni1ECC" unicode="&#x1ecc;" horiz-adv-x="822" 
d="M413 -243q-31 0 -53 22t-22 53q0 32 22 54t53 22q32 0 54.5 -22t22.5 -54q0 -31 -22.5 -53t-54.5 -22zM411 -16q-159 0 -266.5 108.5t-107.5 265.5t107.5 265.5t266.5 108.5t266.5 -108.5t107.5 -265.5t-107.5 -265.5t-266.5 -108.5zM411 112q101 0 170 69t69 177
t-69 177t-170 69t-170 -69t-69 -177t69 -177t170 -69z" />
    <glyph glyph-name="uni1ECD" unicode="&#x1ecd;" horiz-adv-x="576" 
d="M288 -243q-31 0 -53 22t-22 53q0 32 22 54t53 22q32 0 54.5 -22t22.5 -54q0 -31 -22.5 -53t-54.5 -22zM288 506q113 0 186.5 -73.5t73.5 -187.5t-73.5 -187.5t-186.5 -73.5t-186.5 73.5t-73.5 187.5t73.5 187.5t186.5 73.5zM288 105q53 0 91 38t38 102t-38 102t-91 38
t-91 -38t-38 -102t38 -102t91 -38z" />
    <glyph glyph-name="uni1ECE" unicode="&#x1ece;" horiz-adv-x="822" 
d="M467 785h-89q0 29 11 45q5 9 29 26.5t24 33.5q0 18 -26 18q-22 0 -39 -23l-75 27q30 70 120 70q51 0 81.5 -23.5t30.5 -60.5q0 -26 -9.5 -43.5t-21.5 -24.5t-23 -18.5t-13 -26.5zM411 -16q-159 0 -266.5 108.5t-107.5 265.5t107.5 265.5t266.5 108.5t266.5 -108.5
t107.5 -265.5t-107.5 -265.5t-266.5 -108.5zM411 112q101 0 170 69t69 177t-69 177t-170 69t-170 -69t-69 -177t69 -177t170 -69z" />
    <glyph glyph-name="uni1ECF" unicode="&#x1ecf;" horiz-adv-x="576" 
d="M343 569h-89q0 29 11 45q5 9 29 26.5t24 33.5q0 18 -26 18q-22 0 -39 -23l-75 27q30 70 120 70q51 0 81.5 -23.5t30.5 -60.5q0 -26 -9.5 -43.5t-21.5 -24.5t-23 -18.5t-13 -26.5zM288 506q113 0 186.5 -73.5t73.5 -187.5t-73.5 -187.5t-186.5 -73.5t-186.5 73.5
t-73.5 187.5t73.5 187.5t186.5 73.5zM288 105q53 0 91 38t38 102t-38 102t-91 38t-91 -38t-38 -102t38 -102t91 -38z" />
    <glyph glyph-name="uni1ED0" unicode="&#x1ed0;" horiz-adv-x="822" 
d="M411 831l-47 -56h-112l105 132h108l105 -132h-112zM411 -16q-159 0 -266.5 108.5t-107.5 265.5t107.5 265.5t266.5 108.5t266.5 -108.5t107.5 -265.5t-107.5 -265.5t-266.5 -108.5zM411 112q101 0 170 69t69 177t-69 177t-170 69t-170 -69t-69 -177t69 -177t170 -69z
M599 994h131l-87 -117h-111z" />
    <glyph glyph-name="uni1ED1" unicode="&#x1ed1;" horiz-adv-x="576" 
d="M288 615l-47 -56h-112l105 132h108l105 -132h-112zM288 506q113 0 186.5 -73.5t73.5 -187.5t-73.5 -187.5t-186.5 -73.5t-186.5 73.5t-73.5 187.5t73.5 187.5t186.5 73.5zM288 105q53 0 91 38t38 102t-38 102t-91 38t-91 -38t-38 -102t38 -102t91 -38zM476 778h131
l-87 -117h-111z" />
    <glyph glyph-name="uni1ED2" unicode="&#x1ed2;" horiz-adv-x="822" 
d="M411 831l-47 -56h-112l105 132h108l105 -132h-112zM411 -16q-159 0 -266.5 108.5t-107.5 265.5t107.5 265.5t266.5 108.5t266.5 -108.5t107.5 -265.5t-107.5 -265.5t-266.5 -108.5zM411 112q101 0 170 69t69 177t-69 177t-170 69t-170 -69t-69 -177t69 -177t170 -69z
M455 994h131l67 -117h-111z" />
    <glyph glyph-name="uni1ED3" unicode="&#x1ed3;" horiz-adv-x="576" 
d="M288 615l-47 -56h-112l105 132h108l105 -132h-112zM288 506q113 0 186.5 -73.5t73.5 -187.5t-73.5 -187.5t-186.5 -73.5t-186.5 73.5t-73.5 187.5t73.5 187.5t186.5 73.5zM288 105q53 0 91 38t38 102t-38 102t-91 38t-91 -38t-38 -102t38 -102t91 -38zM332 778h131
l67 -117h-111z" />
    <glyph glyph-name="uni1ED4" unicode="&#x1ed4;" horiz-adv-x="822" 
d="M411 831l-47 -56h-112l105 132h108l105 -132h-112zM411 -16q-159 0 -266.5 108.5t-107.5 265.5t107.5 265.5t266.5 108.5t266.5 -108.5t107.5 -265.5t-107.5 -265.5t-266.5 -108.5zM411 112q101 0 170 69t69 177t-69 177t-170 69t-170 -69t-69 -177t69 -177t170 -69z
M613 867h-77q0 24 9 39q5 8 23 21.5t18 23.5q0 15 -18 15q-22 0 -32 -24l-66 24q23 62 103 62q42 0 67.5 -19.5t25.5 -49.5q0 -35 -25.5 -56t-27.5 -36z" />
    <glyph glyph-name="uni1ED5" unicode="&#x1ed5;" horiz-adv-x="576" 
d="M288 615l-47 -56h-112l105 132h108l105 -132h-112zM288 506q113 0 186.5 -73.5t73.5 -187.5t-73.5 -187.5t-186.5 -73.5t-186.5 73.5t-73.5 187.5t73.5 187.5t186.5 73.5zM288 105q53 0 91 38t38 102t-38 102t-91 38t-91 -38t-38 -102t38 -102t91 -38zM490 651h-77
q0 24 9 39q5 8 23 21.5t18 23.5q0 15 -18 15q-21 0 -32 -24l-66 24q23 62 103 62q42 0 67.5 -19.5t25.5 -49.5q0 -35 -25.5 -56t-27.5 -36z" />
    <glyph glyph-name="uni1ED6" unicode="&#x1ed6;" horiz-adv-x="822" 
d="M411 827l-47 -52h-112l105 122h108l105 -122h-112zM411 -16q-159 0 -266.5 108.5t-107.5 265.5t107.5 265.5t266.5 108.5t266.5 -108.5t107.5 -265.5t-107.5 -265.5t-266.5 -108.5zM411 112q101 0 170 69t69 177t-69 177t-170 69t-170 -69t-69 -177t69 -177t170 -69z
M473 921q-29 0 -61 17q-7 3 -15.5 7.5t-13.5 6.5t-10 2q-21 0 -22 -24h-81q0 52 28.5 78t71.5 26q27 0 61 -16q36 -17 38 -17q21 0 23 24h81q0 -52 -28.5 -78t-71.5 -26z" />
    <glyph glyph-name="uni1ED7" unicode="&#x1ed7;" horiz-adv-x="576" 
d="M288 611l-47 -52h-112l105 122h108l105 -122h-112zM288 506q113 0 186.5 -73.5t73.5 -187.5t-73.5 -187.5t-186.5 -73.5t-186.5 73.5t-73.5 187.5t73.5 187.5t186.5 73.5zM288 105q53 0 91 38t38 102t-38 102t-91 38t-91 -38t-38 -102t38 -102t91 -38zM350 711
q-29 0 -61 17q-7 3 -15.5 7.5t-13.5 6.5t-10 2q-20 0 -22 -24h-81q0 52 28.5 78t71.5 26q27 0 61 -16q36 -17 38 -17q22 0 23 24h81q0 -52 -28.5 -78t-71.5 -26z" />
    <glyph glyph-name="uni1ED8" unicode="&#x1ed8;" horiz-adv-x="822" 
d="M411 837l-47 -62h-112l105 148h108l105 -148h-112zM411 -16q-159 0 -266.5 108.5t-107.5 265.5t107.5 265.5t266.5 108.5t266.5 -108.5t107.5 -265.5t-107.5 -265.5t-266.5 -108.5zM411 112q101 0 170 69t69 177t-69 177t-170 69t-170 -69t-69 -177t69 -177t170 -69z
M413 -243q-31 0 -53 22t-22 53q0 32 22 54t53 22q32 0 54.5 -22t22.5 -54q0 -31 -22.5 -53t-54.5 -22z" />
    <glyph glyph-name="uni1ED9" unicode="&#x1ed9;" horiz-adv-x="576" 
d="M288 -243q-31 0 -53 22t-22 53q0 32 22 54t53 22q32 0 54.5 -22t22.5 -54q0 -31 -22.5 -53t-54.5 -22zM288 621l-47 -62h-112l105 148h108l105 -148h-112zM288 506q113 0 186.5 -73.5t73.5 -187.5t-73.5 -187.5t-186.5 -73.5t-186.5 73.5t-73.5 187.5t73.5 187.5
t186.5 73.5zM288 105q53 0 91 38t38 102t-38 102t-91 38t-91 -38t-38 -102t38 -102t91 -38z" />
    <glyph glyph-name="uni1EDA" unicode="&#x1eda;" horiz-adv-x="822" 
d="M445 933h131l-103 -148h-111zM411 -16q-159 0 -266.5 108.5t-107.5 265.5t107.5 265.5t266.5 108.5q53 0 104 -14q10 -1 23.5 -2.5t16.5 -1.5q26 0 39 1q29 1 43 19.5t14 63.5l101 -27q-1 -66 -37 -106q-20 -22 -50 -29l13 -13q107 -107 107 -265q0 -157 -107.5 -265.5
t-266.5 -108.5zM411 112q101 0 170 69t69 177t-69 177t-170 69t-170 -69t-69 -177t69 -177t170 -69z" />
    <glyph glyph-name="uni1EDB" unicode="&#x1edb;" horiz-adv-x="576" 
d="M322 717h131l-103 -148h-111zM288 506q50 0 93 -15q5 0 8 -1q14 -1 38 -1q29 1 43 19.5t14 63.5l101 -27q-1 -66 -37 -106q-19 -22 -53 -30q19 -26 33 -59q20 -49 20 -105q0 -114 -73.5 -187.5t-186.5 -73.5t-186.5 73.5t-73.5 187.5t73.5 187.5t186.5 73.5zM288 105
q53 0 91 38t38 102t-38 102t-91 38t-91 -38t-38 -102t38 -102t91 -38z" />
    <glyph glyph-name="uni1EDC" unicode="&#x1edc;" horiz-adv-x="822" 
d="M290 933h131l83 -148h-111zM411 -16q-159 0 -266.5 108.5t-107.5 265.5t107.5 265.5t266.5 108.5q53 0 104 -14q10 -1 23.5 -2.5t16.5 -1.5q26 0 39 1q29 1 43 19.5t14 63.5l101 -27q-1 -66 -37 -106q-20 -22 -50 -29l13 -13q107 -107 107 -265q0 -157 -107.5 -265.5
t-266.5 -108.5zM411 112q101 0 170 69t69 177t-69 177t-170 69t-170 -69t-69 -177t69 -177t170 -69z" />
    <glyph glyph-name="uni1EDD" unicode="&#x1edd;" horiz-adv-x="576" 
d="M152 717h131l83 -148h-111zM288 506q50 0 93 -15q5 0 8 -1q14 -1 38 -1q29 1 43 19.5t14 63.5l101 -27q-1 -66 -37 -106q-19 -22 -53 -30q19 -26 33 -59q20 -49 20 -105q0 -114 -73.5 -187.5t-186.5 -73.5t-186.5 73.5t-73.5 187.5t73.5 187.5t186.5 73.5zM288 105
q53 0 91 38t38 102t-38 102t-91 38t-91 -38t-38 -102t38 -102t91 -38z" />
    <glyph glyph-name="uni1EDE" unicode="&#x1ede;" horiz-adv-x="822" 
d="M467 785h-89q0 29 11 45q5 9 29 26.5t24 33.5q0 18 -26 18q-22 0 -39 -23l-75 27q30 70 120 70q51 0 81.5 -23.5t30.5 -60.5q0 -26 -9.5 -43.5t-21.5 -24.5t-23 -18.5t-13 -26.5zM411 -16q-159 0 -266.5 108.5t-107.5 265.5t107.5 265.5t266.5 108.5q53 0 104 -14
q10 -1 23.5 -2.5t16.5 -1.5q26 0 39 1q29 1 43 19.5t14 63.5l101 -27q-1 -66 -37 -106q-20 -22 -50 -29l13 -13q107 -107 107 -265q0 -157 -107.5 -265.5t-266.5 -108.5zM411 112q101 0 170 69t69 177t-69 177t-170 69t-170 -69t-69 -177t69 -177t170 -69z" />
    <glyph glyph-name="uni1EDF" unicode="&#x1edf;" horiz-adv-x="576" 
d="M343 569h-89q0 29 11 45q5 9 29 26.5t24 33.5q0 18 -26 18q-22 0 -39 -23l-75 27q30 70 120 70q51 0 81.5 -23.5t30.5 -60.5q0 -26 -9.5 -43.5t-21.5 -24.5t-23 -18.5t-13 -26.5zM288 506q50 0 93 -15q5 0 8 -1q14 -1 38 -1q29 1 43 19.5t14 63.5l101 -27
q-1 -66 -37 -106q-19 -22 -53 -30q19 -26 33 -59q20 -49 20 -105q0 -114 -73.5 -187.5t-186.5 -73.5t-186.5 73.5t-73.5 187.5t73.5 187.5t186.5 73.5zM288 105q53 0 91 38t38 102t-38 102t-91 38t-91 -38t-38 -102t38 -102t91 -38z" />
    <glyph glyph-name="uni1EE0" unicode="&#x1ee0;" horiz-adv-x="822" 
d="M468 775q-30 0 -61 20q-7 3 -15.5 8t-13.5 7.5t-10 2.5q-21 0 -22 -28h-81q0 61 28.5 91.5t71.5 30.5q25 0 61 -19q33 -19 38 -19q22 0 23 28h81q0 -61 -28.5 -91.5t-71.5 -30.5zM411 -16q-159 0 -266.5 108.5t-107.5 265.5t107.5 265.5t266.5 108.5q53 0 104 -14
q10 -1 23.5 -2.5t16.5 -1.5q26 0 39 1q29 1 43 19.5t14 63.5l101 -27q-1 -66 -37 -106q-20 -22 -50 -29l13 -13q107 -107 107 -265q0 -157 -107.5 -265.5t-266.5 -108.5zM411 112q101 0 170 69t69 177t-69 177t-170 69t-170 -69t-69 -177t69 -177t170 -69z" />
    <glyph glyph-name="uni1EE1" unicode="&#x1ee1;" horiz-adv-x="576" 
d="M348 559q-30 0 -61 20q-7 3 -15.5 8t-13.5 7.5t-10 2.5q-21 0 -22 -28h-81q0 61 28.5 91.5t71.5 30.5q25 0 61 -19q33 -19 38 -19q22 0 23 28h81q0 -61 -28.5 -91.5t-71.5 -30.5zM288 506q50 0 93 -15q5 0 8 -1q14 -1 38 -1q29 1 43 19.5t14 63.5l101 -27
q-1 -66 -37 -106q-19 -22 -53 -30q19 -26 33 -59q20 -49 20 -105q0 -114 -73.5 -187.5t-186.5 -73.5t-186.5 73.5t-73.5 187.5t73.5 187.5t186.5 73.5zM288 105q53 0 91 38t38 102t-38 102t-91 38t-91 -38t-38 -102t38 -102t91 -38z" />
    <glyph glyph-name="uni1EE2" unicode="&#x1ee2;" horiz-adv-x="822" 
d="M413 -243q-31 0 -53 22t-22 53q0 32 22 54t53 22q32 0 54.5 -22t22.5 -54q0 -31 -22.5 -53t-54.5 -22zM411 -16q-159 0 -266.5 108.5t-107.5 265.5t107.5 265.5t266.5 108.5q53 0 104 -14q10 -1 23.5 -2.5t16.5 -1.5q26 0 39 1q29 1 43 19.5t14 63.5l101 -27
q-1 -66 -37 -106q-20 -22 -50 -29l13 -13q107 -107 107 -265q0 -157 -107.5 -265.5t-266.5 -108.5zM411 112q101 0 170 69t69 177t-69 177t-170 69t-170 -69t-69 -177t69 -177t170 -69z" />
    <glyph glyph-name="uni1EE3" unicode="&#x1ee3;" horiz-adv-x="576" 
d="M288 -243q-31 0 -53 22t-22 53q0 32 22 54t53 22q32 0 54.5 -22t22.5 -54q0 -31 -22.5 -53t-54.5 -22zM288 506q50 0 93 -15q5 0 8 -1q14 -1 38 -1q29 1 43 19.5t14 63.5l101 -27q-1 -66 -37 -106q-19 -22 -53 -30q19 -26 33 -59q20 -49 20 -105q0 -114 -73.5 -187.5
t-186.5 -73.5t-186.5 73.5t-73.5 187.5t73.5 187.5t186.5 73.5zM288 105q53 0 91 38t38 102t-38 102t-91 38t-91 -38t-38 -102t38 -102t91 -38z" />
    <glyph glyph-name="uni1EE4" unicode="&#x1ee4;" horiz-adv-x="669" 
d="M336 -243q-31 0 -53 22t-22 53q0 32 22 54t53 22q32 0 54.5 -22t22.5 -54q0 -31 -22.5 -53t-54.5 -22zM334 -16q-127 0 -202.5 80.5t-75.5 220.5v431h135v-439q0 -74 37.5 -119.5t105.5 -45.5q70 0 107 45.5t37 119.5v439h135v-431q0 -135 -76 -218t-203 -83z" />
    <glyph glyph-name="uni1EE5" unicode="&#x1ee5;" horiz-adv-x="574" 
d="M279 -243q-31 0 -53 22t-22 53q0 32 22 54t53 22q32 0 54.5 -22t22.5 -54q0 -31 -22.5 -53t-54.5 -22zM395 0v64h-8q-51 -80 -151 -80q-91 0 -137.5 55.5t-46.5 153.5v297h131v-281q0 -104 92 -104q52 0 82 41.5t30 103.5v240h131v-490h-123z" />
    <glyph glyph-name="uni1EE6" unicode="&#x1ee6;" horiz-adv-x="669" 
d="M385 785h-89q0 29 11 45q5 9 29 26.5t24 33.5q0 18 -26 18q-22 0 -39 -23l-75 27q30 70 120 70q51 0 81.5 -23.5t30.5 -60.5q0 -26 -9.5 -43.5t-21.5 -24.5t-23 -18.5t-13 -26.5zM334 -16q-127 0 -202.5 80.5t-75.5 220.5v431h135v-439q0 -74 37.5 -119.5t105.5 -45.5
q70 0 107 45.5t37 119.5v439h135v-431q0 -135 -76 -218t-203 -83z" />
    <glyph glyph-name="uni1EE7" unicode="&#x1ee7;" horiz-adv-x="574" 
d="M332 569h-89q0 29 11 45q5 9 29 26.5t24 33.5q0 18 -26 18q-22 0 -39 -23l-75 27q30 70 120 70q51 0 81.5 -23.5t30.5 -60.5q0 -26 -9.5 -43.5t-21.5 -24.5t-23 -18.5t-13 -26.5zM395 0v64h-8q-51 -80 -151 -80q-91 0 -137.5 55.5t-46.5 153.5v297h131v-281
q0 -104 92 -104q52 0 82 41.5t30 103.5v240h131v-490h-123z" />
    <glyph glyph-name="uni1EE8" unicode="&#x1ee8;" horiz-adv-x="669" 
d="M361 933h131l-103 -148h-111zM334 -16q-127 0 -202.5 80.5t-75.5 220.5v431h135v-439q0 -74 37.5 -119.5t105.5 -45.5q70 0 107 45.5t37 119.5v439h88q20 5 31 17q15 18 15 65l101 -27q-1 -66 -37 -106q-21 -24 -63 -32v-348q0 -135 -76 -218t-203 -83z" />
    <glyph glyph-name="uni1EE9" unicode="&#x1ee9;" horiz-adv-x="574" 
d="M307 717h131l-103 -148h-111zM395 0v64h-8q-51 -80 -151 -80q-91 0 -137.5 55.5t-46.5 153.5v297h131v-281q0 -104 92 -104q52 0 82 41.5t30 103.5v240h87q17 3 29 17q15 18 15 65l101 -27q-1 -66 -37 -106q-24 -26 -64 -33v-406h-123z" />
    <glyph glyph-name="uni1EEA" unicode="&#x1eea;" horiz-adv-x="669" 
d="M194 933h131l83 -148h-111zM334 -16q-127 0 -202.5 80.5t-75.5 220.5v431h135v-439q0 -74 37.5 -119.5t105.5 -45.5q70 0 107 45.5t37 119.5v439h88q20 5 31 17q15 18 15 65l101 -27q-1 -66 -37 -106q-21 -24 -63 -32v-348q0 -135 -76 -218t-203 -83z" />
    <glyph glyph-name="uni1EEB" unicode="&#x1eeb;" horiz-adv-x="574" 
d="M137 717h131l83 -148h-111zM395 0v64h-8q-51 -80 -151 -80q-91 0 -137.5 55.5t-46.5 153.5v297h131v-281q0 -104 92 -104q52 0 82 41.5t30 103.5v240h87q17 3 29 17q15 18 15 65l101 -27q-1 -66 -37 -106q-24 -26 -64 -33v-406h-123z" />
    <glyph glyph-name="uni1EEC" unicode="&#x1eec;" horiz-adv-x="669" 
d="M385 785h-89q0 29 11 45q5 9 29 26.5t24 33.5q0 18 -26 18q-22 0 -39 -23l-75 27q30 70 120 70q51 0 81.5 -23.5t30.5 -60.5q0 -26 -9.5 -43.5t-21.5 -24.5t-23 -18.5t-13 -26.5zM334 -16q-127 0 -202.5 80.5t-75.5 220.5v431h135v-439q0 -74 37.5 -119.5t105.5 -45.5
q70 0 107 45.5t37 119.5v439h88q20 5 31 17q15 18 15 65l101 -27q-1 -66 -37 -106q-21 -24 -63 -32v-348q0 -135 -76 -218t-203 -83z" />
    <glyph glyph-name="uni1EED" unicode="&#x1eed;" horiz-adv-x="574" 
d="M332 569h-89q0 29 11 45q5 9 29 26.5t24 33.5q0 18 -26 18q-22 0 -39 -23l-75 27q30 70 120 70q51 0 81.5 -23.5t30.5 -60.5q0 -26 -9.5 -43.5t-21.5 -24.5t-23 -18.5t-13 -26.5zM395 0v64h-8q-51 -80 -151 -80q-91 0 -137.5 55.5t-46.5 153.5v297h131v-281
q0 -104 92 -104q52 0 82 41.5t30 103.5v240h87q17 3 29 17q15 18 15 65l101 -27q-1 -66 -37 -106q-24 -26 -64 -33v-406h-123z" />
    <glyph glyph-name="uni1EEE" unicode="&#x1eee;" horiz-adv-x="669" 
d="M392 775q-30 0 -61 20q-7 3 -15.5 8t-13.5 7.5t-10 2.5q-21 0 -22 -28h-81q0 61 28.5 91.5t71.5 30.5q25 0 61 -19q33 -19 38 -19q22 0 23 28h81q0 -61 -28.5 -91.5t-71.5 -30.5zM334 -16q-127 0 -202.5 80.5t-75.5 220.5v431h135v-439q0 -74 37.5 -119.5t105.5 -45.5
q70 0 107 45.5t37 119.5v439h88q20 5 31 17q15 18 15 65l101 -27q-1 -66 -37 -106q-21 -24 -63 -32v-348q0 -135 -76 -218t-203 -83z" />
    <glyph glyph-name="uni1EEF" unicode="&#x1eef;" horiz-adv-x="574" 
d="M337 559q-30 0 -61 20q-7 3 -15.5 8t-13.5 7.5t-10 2.5q-21 0 -22 -28h-81q0 61 28.5 91.5t71.5 30.5q25 0 61 -19q33 -19 38 -19q22 0 23 28h81q0 -61 -28.5 -91.5t-71.5 -30.5zM395 0v64h-8q-51 -80 -151 -80q-91 0 -137.5 55.5t-46.5 153.5v297h131v-281
q0 -104 92 -104q52 0 82 41.5t30 103.5v240h87q17 3 29 17q15 18 15 65l101 -27q-1 -66 -37 -106q-24 -26 -64 -33v-406h-123z" />
    <glyph glyph-name="uni1EF0" unicode="&#x1ef0;" horiz-adv-x="669" 
d="M336 -243q-31 0 -53 22t-22 53q0 32 22 54t53 22q32 0 54.5 -22t22.5 -54q0 -31 -22.5 -53t-54.5 -22zM334 -16q-127 0 -202.5 80.5t-75.5 220.5v431h135v-439q0 -74 37.5 -119.5t105.5 -45.5q70 0 107 45.5t37 119.5v439h88q20 5 31 17q15 18 15 65l101 -27
q-1 -66 -37 -106q-21 -24 -63 -32v-348q0 -135 -76 -218t-203 -83z" />
    <glyph glyph-name="uni1EF1" unicode="&#x1ef1;" horiz-adv-x="574" 
d="M279 -243q-31 0 -53 22t-22 53q0 32 22 54t53 22q32 0 54.5 -22t22.5 -54q0 -31 -22.5 -53t-54.5 -22zM395 0v64h-8q-51 -80 -151 -80q-91 0 -137.5 55.5t-46.5 153.5v297h131v-281q0 -104 92 -104q52 0 82 41.5t30 103.5v240h87q17 3 29 17q15 18 15 65l101 -27
q-1 -66 -37 -106q-24 -26 -64 -33v-406h-123z" />
    <glyph glyph-name="Ygrave" unicode="&#x1ef2;" horiz-adv-x="637" 
d="M167 933h131l83 -148h-111zM253 0v333l-241 383h161l143 -237h8l138 237h163l-237 -383v-333h-135z" />
    <glyph glyph-name="ygrave" unicode="&#x1ef3;" horiz-adv-x="553" 
d="M124 717h131l83 -148h-111zM101 -216l109 240l-206 466h149l124 -297h7l119 297h146l-307 -706h-141z" />
    <glyph glyph-name="uni1EF4" unicode="&#x1ef4;" horiz-adv-x="637" 
d="M253 0v333l-241 383h161l143 -237h8l138 237h163l-237 -383v-333h-135zM319 -243q-31 0 -53 22t-22 53q0 32 22 54t53 22q32 0 54.5 -22t22.5 -54q0 -31 -22.5 -53t-54.5 -22z" />
    <glyph glyph-name="uni1EF5" unicode="&#x1ef5;" horiz-adv-x="553" 
d="M433 -243q-31 0 -53 22t-22 53q0 32 22 54t53 22q32 0 54.5 -22t22.5 -54q0 -31 -22.5 -53t-54.5 -22zM101 -216l109 240l-206 466h149l124 -297h7l119 297h146l-307 -706h-141z" />
    <glyph glyph-name="uni1EF6" unicode="&#x1ef6;" horiz-adv-x="637" 
d="M363 785h-89q0 29 11 45q5 9 29 26.5t24 33.5q0 18 -26 18q-22 0 -39 -23l-75 27q30 70 120 70q51 0 81.5 -23.5t30.5 -60.5q0 -26 -9.5 -43.5t-21.5 -24.5t-23 -18.5t-13 -26.5zM253 0v333l-241 383h161l143 -237h8l138 237h163l-237 -383v-333h-135z" />
    <glyph glyph-name="uni1EF7" unicode="&#x1ef7;" horiz-adv-x="553" 
d="M320 569h-89q0 29 11 45q5 9 29 26.5t24 33.5q0 18 -26 18q-22 0 -39 -23l-75 27q30 70 120 70q51 0 81.5 -23.5t30.5 -60.5q0 -26 -9.5 -43.5t-21.5 -24.5t-23 -18.5t-13 -26.5zM101 -216l109 240l-206 466h149l124 -297h7l119 297h146l-307 -706h-141z" />
    <glyph glyph-name="uni1EF8" unicode="&#x1ef8;" horiz-adv-x="637" 
d="M367 775q-30 0 -61 20q-7 3 -15.5 8t-13.5 7.5t-10 2.5q-21 0 -22 -28h-81q0 61 28.5 91.5t71.5 30.5q25 0 61 -19q33 -19 38 -19q22 0 23 28h81q0 -61 -28.5 -91.5t-71.5 -30.5zM253 0v333l-241 383h161l143 -237h8l138 237h163l-237 -383v-333h-135z" />
    <glyph glyph-name="uni1EF9" unicode="&#x1ef9;" horiz-adv-x="553" 
d="M326 559q-30 0 -61 20q-7 3 -15.5 8t-13.5 7.5t-10 2.5q-21 0 -22 -28h-81q0 61 28.5 91.5t71.5 30.5q25 0 61 -19q33 -19 38 -19q22 0 23 28h81q0 -61 -28.5 -91.5t-71.5 -30.5zM101 -216l109 240l-206 466h149l124 -297h7l119 297h146l-307 -706h-141z" />
    <glyph glyph-name="endash" unicode="&#x2013;" horiz-adv-x="611" 
d="M56 252v116h499v-116h-499z" />
    <glyph glyph-name="emdash" unicode="&#x2014;" horiz-adv-x="917" 
d="M56 252v116h805v-116h-805z" />
    <glyph glyph-name="quoteleft" unicode="&#x2018;" horiz-adv-x="269" 
d="M160 732l59 -39l-51 -78q53 -19 53 -78q0 -36 -25 -61.5t-61 -25.5t-61.5 25.5t-25.5 61.5q0 30 25 66z" />
    <glyph glyph-name="quoteright" unicode="&#x2019;" horiz-adv-x="269" 
d="M109 450l-59 39l51 78q-23 9 -38 29.5t-15 48.5q0 36 25.5 61.5t61.5 25.5t61 -25.5t25 -61.5q0 -30 -25 -66z" />
    <glyph glyph-name="quotesinglbase" unicode="&#x201a;" horiz-adv-x="269" 
d="M109 -116l-59 39l51 78q-23 9 -38 29.5t-15 48.5q0 36 25.5 61.5t61.5 25.5t61 -25.5t25 -61.5q0 -30 -25 -66z" />
    <glyph glyph-name="quotedblleft" unicode="&#x201c;" horiz-adv-x="488" 
d="M160 732l59 -39l-51 -78q53 -19 53 -78q0 -36 -25 -61.5t-61 -25.5t-61.5 25.5t-25.5 61.5q0 30 25 66zM379 732l59 -39l-51 -78q53 -19 53 -78q0 -36 -25 -61.5t-61 -25.5t-61.5 25.5t-25.5 61.5q0 30 25 66z" />
    <glyph glyph-name="quotedblright" unicode="&#x201d;" horiz-adv-x="488" 
d="M109 450l-59 39l51 78q-23 9 -38 29.5t-15 48.5q0 36 25.5 61.5t61.5 25.5t61 -25.5t25 -61.5q0 -30 -25 -66zM328 450l-59 39l51 78q-23 9 -38 29.5t-15 48.5q0 36 25.5 61.5t61.5 25.5t61 -25.5t25 -61.5q0 -30 -25 -66z" />
    <glyph glyph-name="quotedblbase" unicode="&#x201e;" horiz-adv-x="479" 
d="M109 -116l-59 39l51 78q-23 9 -38 29.5t-15 48.5q0 36 25.5 61.5t61.5 25.5t61 -25.5t25 -61.5q0 -30 -25 -66zM318 -116l-59 39l51 78q-23 9 -38 29.5t-15 48.5q0 36 25.5 61.5t61.5 25.5t61 -25.5t25 -61.5q0 -30 -25 -66z" />
    <glyph glyph-name="bullet" unicode="&#x2022;" horiz-adv-x="421" 
d="M211 193q-54 0 -92.5 38.5t-38.5 92.5t38.5 92.5t92.5 38.5t92 -38.5t38 -92.5t-38 -92.5t-92 -38.5z" />
    <glyph glyph-name="ellipsis" unicode="&#x2026;" horiz-adv-x="752" 
d="M135 -6q-36 0 -61.5 25.5t-25.5 61.5t25.5 61t61.5 25t61 -25t25 -61t-25 -61.5t-61 -25.5zM376 -6q-36 0 -61.5 25.5t-25.5 61.5t25.5 61t61.5 25t61 -25t25 -61t-25 -61.5t-61 -25.5zM618 -6q-36 0 -61.5 25.5t-25.5 61.5t25.5 61t61.5 25t61 -25t25 -61t-25 -61.5
t-61 -25.5z" />
    <glyph glyph-name="guilsinglleft" unicode="&#x2039;" horiz-adv-x="387" 
d="M177 271l150 -161l-75 -69l-212 230l212 230l75 -69z" />
    <glyph glyph-name="guilsinglright" unicode="&#x203a;" horiz-adv-x="387" 
d="M60 110l150 161l-150 161l75 69l212 -230l-212 -230z" />
    <glyph glyph-name="fraction" unicode="&#x2044;" horiz-adv-x="192" 
d="M-97 -16l-79 53l465 694l79 -53z" />
    <glyph glyph-name="uni2074" unicode="&#x2074;" horiz-adv-x="362" 
d="M286 350h-86v65h-172v64l171 237h87v-227h48v-74h-48v-65zM116 489h84v107h-8z" />
    <glyph glyph-name="Euro" unicode="&#x20ac;" horiz-adv-x="653" 
d="M24 375v94h99q36 105 125 168t207 63q86 0 160 -44l-62 -107q-41 27 -97 27q-60 0 -110.5 -28t-79.5 -79h202v-94h-232q-2 -18 -2 -33q0 -17 2 -33h232v-94h-202q29 -51 79.5 -79t110.5 -28q65 0 118 34l55 -113q-79 -45 -174 -45q-118 0 -207 63t-125 168h-99v94h81
q-2 18 -2 33t2 33h-81z" />
    <glyph glyph-name="minus" unicode="&#x2212;" horiz-adv-x="569" 
d="M513 213h-457v116h457v-116z" />
    <glyph glyph-name="uni2215" unicode="&#x2215;" horiz-adv-x="480" 
d="M156 0h-129l297 716h129z" />
    <glyph glyph-name="Lslash" horiz-adv-x="617" 
d="M155 0v247l-54 -33l-59 93l113 71v338h135v-251l110 69l57 -92l-167 -105v-209h303v-128h-438z" />
    <glyph glyph-name="uniF8FF" horiz-adv-x="1000" 
d="M499 451h392q7 -39 7 -86q0 -179 -110 -292.5t-289 -113.5q-113 0 -209 55.5t-151.5 151.5t-55.5 209t55.5 209t151.5 151.5t209 55.5q164 0 278 -108l-119 -120q-65 62 -159 62q-102 0 -174 -74t-72 -176t72 -176.5t174 -74.5q90 0 149.5 46t74.5 120h-224v161z" />
    <glyph glyph-name="one.numerator" horiz-adv-x="272" 
d="M212 350h-89v263l-66 -29l-33 75l123 57h65v-366z" />
    <glyph glyph-name="two.denominator" horiz-adv-x="317" 
d="M289 0h-261v63l59 60l69 69q15 14 22 22t13 20t6 25q0 15 -11.5 25.5t-29.5 10.5q-42 0 -52 -50l-80 31q11 45 47 71.5t85 26.5q57 0 94 -30t37 -78q0 -51 -62 -113l-45 -45q-19 -19 -30 -29h139v-79z" />
    <glyph glyph-name="two.numerator" horiz-adv-x="317" 
d="M289 350h-261v63l59 60l69 69q15 14 22 22t13 20t6 25q0 15 -11.5 25.5t-29.5 10.5q-42 0 -52 -50l-80 31q11 45 47 71.5t85 26.5q57 0 94 -30t37 -78q0 -51 -62 -113l-45 -45q-19 -19 -30 -29h139v-79z" />
    <glyph glyph-name="three.numerator" horiz-adv-x="335" 
d="M165 342q-51 0 -89 25t-52 76l83 30q11 -54 58 -54q21 0 35 12t14 32t-16 31t-41 11h-38v70h34q50 0 50 38q0 15 -11.5 24.5t-27.5 9.5q-38 0 -52 -37l-78 31q29 83 132 83q54 0 89 -30t35 -73q0 -48 -43 -78q56 -30 56 -84q0 -53 -40.5 -85t-97.5 -32z" />
    <glyph glyph-name="four.denominator" horiz-adv-x="362" 
d="M286 0h-86v65h-172v64l171 237h87v-227h48v-74h-48v-65zM116 139h84v107h-8z" />
    <glyph glyph-name="four.numerator" horiz-adv-x="362" 
d="M286 350h-86v65h-172v64l171 237h87v-227h48v-74h-48v-65zM116 489h84v107h-8z" />
    <glyph glyph-name="r.alt" horiz-adv-x="401" 
d="M179 490v-68h8q21 37 59 59.5t85 22.5q31 0 46 -5v-130q-24 11 -57 11q-62 0 -97.5 -37.5t-35.5 -102.5v-240h-131v490h123z" />
    <glyph glyph-name="uni03BC" horiz-adv-x="574" 
d="M518 0h-123v54h-8q-45 -70 -127 -70q-45 0 -77 24h-8l8 -65v-159h-131v706h131v-278q0 -52 24.5 -79.5t67.5 -27.5q52 0 82 41.5t30 103.5v240h131v-490z" />
    <glyph glyph-name="uni2103" horiz-adv-x="969" 
d="M660 -16q-153 0 -256.5 103t-103.5 255t103.5 255t256.5 103t255 -113l-90 -88q-66 77 -165 77q-98 0 -163.5 -64.5t-65.5 -169.5t65.5 -169.5t163.5 -64.5q105 0 181 90l92 -88q-106 -126 -273 -126zM163 442q-54 0 -92.5 37.5t-38.5 91.5t38.5 91.5t92.5 37.5t92 -37.5
t38 -91.5t-38 -91.5t-92 -37.5zM163 519q21 0 35.5 15.5t14.5 36.5q0 22 -14 37t-36 15q-23 0 -37 -15t-14 -37t14 -37t37 -15z" />
    <glyph glyph-name="uni2109" horiz-adv-x="833" 
d="M497 0h-131v684h435v-124h-304v-164h274v-124h-274v-272zM163 442q-54 0 -92.5 37.5t-38.5 91.5t38.5 91.5t92.5 37.5t92 -37.5t38 -91.5t-38 -91.5t-92 -37.5zM163 519q21 0 35.5 15.5t14.5 36.5q0 22 -14 37t-36 15q-23 0 -37 -15t-14 -37t14 -37t37 -15z" />
    <glyph glyph-name="uni2190" horiz-adv-x="1123" 
d="M1067 248h-780v-177l-239 239l239 239v-177h780v-124z" />
    <glyph glyph-name="uni2191" horiz-adv-x="559" 
d="M341 595v-740h-124v740h-177l239 240l240 -240h-178z" />
    <glyph glyph-name="uni2192" horiz-adv-x="1123" 
d="M835 248h-779v124h779v177l240 -239l-240 -239v177z" />
    <glyph glyph-name="uni2193" horiz-adv-x="559" 
d="M341 812v-741h178l-240 -239l-239 239h177v741h124z" />
    <glyph glyph-name="uni2196" horiz-adv-x="792" 
d="M253 604l539 -537l-88 -88l-538 537l-126 -125v338h339z" />
    <glyph glyph-name="uni2197" horiz-adv-x="792" 
d="M0 67l539 537l-126 125h339v-338l-126 125l-538 -537z" />
    <glyph glyph-name="uni2198" horiz-adv-x="792" 
d="M792 649l-539 -537l126 -125h-339v338l126 -125l538 537z" />
    <glyph glyph-name="uni2199" horiz-adv-x="792" 
d="M539 112l-539 537l88 88l538 -537l126 125v-338h-339z" />
    <glyph glyph-name="uni2639" horiz-adv-x="836" 
d="M287 395q-23 0 -39.5 16.5t-16.5 40.5q0 23 16.5 39t39.5 16t39.5 -16t16.5 -39q0 -24 -16.5 -40.5t-39.5 -16.5zM549 395q-23 0 -39.5 16.5t-16.5 40.5q0 23 16.5 39t39.5 16t39.5 -16t16.5 -39q0 -24 -16.5 -40.5t-39.5 -16.5zM418 -16q-154 0 -264 110t-110 264
t110 264t264 110t264 -110t110 -264t-110 -264t-264 -110zM418 48q128 0 219 91.5t91 218.5q0 128 -91 219t-219 91q-127 0 -218.5 -91t-91.5 -219q0 -127 91.5 -218.5t218.5 -91.5zM418 301q62 0 112.5 -32.5t74.5 -86.5l-67 -31q-17 35 -49.5 55t-70.5 20q-39 0 -71 -20
t-48 -55l-68 31q24 54 74.5 86.5t112.5 32.5z" />
    <glyph glyph-name="uni263A" horiz-adv-x="836" 
d="M549 395q-23 0 -39.5 16.5t-16.5 40.5q0 23 16.5 39t39.5 16t39.5 -16t16.5 -39q0 -24 -16.5 -40.5t-39.5 -16.5zM287 395q-23 0 -39.5 16.5t-16.5 40.5q0 23 16.5 39t39.5 16t39.5 -16t16.5 -39q0 -24 -16.5 -40.5t-39.5 -16.5zM418 152q-62 0 -112.5 32.5t-74.5 86.5
l68 31q16 -35 48 -55t71 -20q38 0 70.5 20t49.5 55l67 -31q-24 -54 -74.5 -86.5t-112.5 -32.5zM418 -16q-154 0 -264 110t-110 264t110 264t264 110t264 -110t110 -264t-110 -264t-264 -110zM418 48q128 0 219 91.5t91 218.5q0 128 -91 219t-219 91q-127 0 -218.5 -91
t-91.5 -219q0 -127 91.5 -218.5t218.5 -91.5z" />
    <glyph glyph-name="uni2780" horiz-adv-x="836" 
d="M418 -16q-154 0 -264 110t-110 264t110 264t264 110t264 -110t110 -264t-110 -264t-264 -110zM418 69q119 0 204 85.5t85 203.5q0 119 -85 204t-204 85q-118 0 -203.5 -85t-85.5 -204q0 -118 85.5 -203.5t203.5 -85.5zM475 177h-89v263l-66 -29l-33 75l123 57h65v-366z
" />
    <glyph glyph-name="uni2781" horiz-adv-x="836" 
d="M418 -16q-154 0 -264 110t-110 264t110 264t264 110t264 -110t110 -264t-110 -264t-264 -110zM418 69q119 0 204 85.5t85 203.5q0 119 -85 204t-204 85q-118 0 -203.5 -85t-85.5 -204q0 -118 85.5 -203.5t203.5 -85.5zM548 177h-261v63l59 60l69 69q15 14 22 22t13 20
t6 25q0 15 -11.5 25.5t-29.5 10.5q-42 0 -52 -50l-80 31q11 45 47 71.5t85 26.5q57 0 94 -30t37 -78q0 -51 -62 -113l-45 -45q-19 -19 -30 -29h139v-79z" />
    <glyph glyph-name="uni2782" horiz-adv-x="836" 
d="M418 -16q-154 0 -264 110t-110 264t110 264t264 110t264 -110t110 -264t-110 -264t-264 -110zM418 69q119 0 204 85.5t85 203.5q0 119 -85 204t-204 85q-118 0 -203.5 -85t-85.5 -204q0 -118 85.5 -203.5t203.5 -85.5zM417 169q-51 0 -89 25t-52 76l83 30q11 -54 58 -54
q21 0 35 12t14 32t-16 31t-41 11h-38v70h34q50 0 50 38q0 15 -11.5 24.5t-27.5 9.5q-38 0 -52 -37l-78 31q29 83 132 83q54 0 89 -30t35 -73q0 -48 -43 -78q56 -30 56 -84q0 -53 -40.5 -85t-97.5 -32z" />
    <glyph glyph-name="uni2783" horiz-adv-x="836" 
d="M418 -16q-154 0 -264 110t-110 264t110 264t264 110t264 -110t110 -264t-110 -264t-264 -110zM418 69q119 0 204 85.5t85 203.5q0 119 -85 204t-204 85q-118 0 -203.5 -85t-85.5 -204q0 -118 85.5 -203.5t203.5 -85.5zM505 177h-86v65h-172v64l171 237h87v-227h48v-74
h-48v-65zM335 316h84v107h-8z" />
    <glyph glyph-name="uni2784" horiz-adv-x="836" 
d="M418 -16q-154 0 -264 110t-110 264t110 264t264 110t264 -110t110 -264t-110 -264t-264 -110zM418 69q119 0 204 85.5t85 203.5q0 119 -85 204t-204 85q-118 0 -203.5 -85t-85.5 -204q0 -118 85.5 -203.5t203.5 -85.5zM417 169q-46 0 -84.5 22.5t-51.5 68.5l79 31
q11 -45 56 -45q22 0 36.5 14.5t14.5 37.5t-14.5 37.5t-35.5 14.5q-33 0 -52 -29l-73 32l23 189h219v-72h-152l-11 -66q26 17 62 17q50 0 85.5 -34.5t35.5 -90.5t-40 -91.5t-97 -35.5z" />
    <glyph glyph-name="uni2785" horiz-adv-x="836" 
d="M418 -16q-154 0 -264 110t-110 264t110 264t264 110t264 -110t110 -264t-110 -264t-264 -110zM418 69q119 0 204 85.5t85 203.5q0 119 -85 204t-204 85q-118 0 -203.5 -85t-85.5 -204q0 -118 85.5 -203.5t203.5 -85.5zM414 169q-59 0 -98 38t-39 91q0 49 43 111
q12 19 64 90l44 60l67 -49l-76 -96q5 4 19 4q44 0 78.5 -35.5t34.5 -86.5q0 -52 -40 -89.5t-97 -37.5zM413 245q23 0 36.5 14.5t13.5 36.5q0 21 -14 36t-36 15q-21 0 -35 -15t-14 -36t14 -36t35 -15z" />
    <glyph glyph-name="uni2786" horiz-adv-x="836" 
d="M418 -16q-154 0 -264 110t-110 264t110 264t264 110t264 -110t110 -264t-110 -264t-264 -110zM418 69q119 0 204 85.5t85 203.5q0 119 -85 204t-204 85q-118 0 -203.5 -85t-85.5 -204q0 -118 85.5 -203.5t203.5 -85.5zM385 162l-78 40l152 260h-164v81h261v-77z" />
    <glyph glyph-name="uni2787" horiz-adv-x="836" 
d="M418 -16q-154 0 -264 110t-110 264t110 264t264 110t264 -110t110 -264t-110 -264t-264 -110zM418 69q119 0 204 85.5t85 203.5q0 119 -85 204t-204 85q-118 0 -203.5 -85t-85.5 -204q0 -118 85.5 -203.5t203.5 -85.5zM418 169q-56 0 -97 31t-41 83q0 56 52 87
q-40 26 -40 72q0 49 36.5 79t89.5 30t89.5 -30t36.5 -79q0 -46 -40 -72q52 -31 52 -87q0 -53 -41.5 -83.5t-96.5 -30.5zM418 402q16 0 28 10t12 27q0 16 -11.5 26.5t-28.5 10.5q-18 0 -29 -10t-11 -27t12 -27t28 -10zM418 244q20 0 35 13t15 32t-15 32t-35 13
q-21 0 -35.5 -12.5t-14.5 -32.5t14.5 -32.5t35.5 -12.5z" />
    <glyph glyph-name="uni2788" horiz-adv-x="836" 
d="M418 -16q-154 0 -264 110t-110 264t110 264t264 110t264 -110t110 -264t-110 -264t-264 -110zM418 69q119 0 204 85.5t85 203.5q0 119 -85 204t-204 85q-118 0 -203.5 -85t-85.5 -204q0 -118 85.5 -203.5t203.5 -85.5zM415 551q59 0 98 -38t39 -91q0 -49 -43 -111
q-2 -3 -7.5 -10.5l-10.5 -14.5t-10 -15l-36 -50l-44 -60l-67 49l77 96q-7 -4 -20 -4q-44 0 -78.5 35.5t-34.5 86.5q0 52 40 89.5t97 37.5zM416 475q-23 0 -36.5 -14.5t-13.5 -36.5q0 -21 14 -36t36 -15q21 0 35.5 15t14.5 36q0 22 -13.5 36.5t-36.5 14.5z" />
    <glyph glyph-name="uni278A" horiz-adv-x="836" 
d="M475 177v366h-65l-123 -57l32 -75l67 29v-263h89zM418 -16q-154 0 -264 110t-110 264t110 264t264 110t264 -110t110 -264t-110 -264t-264 -110z" />
    <glyph glyph-name="uni278B" horiz-adv-x="836" 
d="M548 177v79h-140q11 10 30 29l45 45q63 63 63 113q0 48 -37.5 78t-94.5 30q-49 0 -85 -26.5t-47 -71.5l81 -31q10 50 51 50q18 0 29.5 -10.5t11.5 -25.5q0 -13 -6 -25t-13 -20t-22 -22q-4 -4 -8 -9l-60 -60l-60 -60v-63h262zM418 -16q-154 0 -264 110t-110 264t110 264
t264 110t264 -110t110 -264t-110 -264t-264 -110z" />
    <glyph glyph-name="uni278C" horiz-adv-x="836" 
d="M417 168q57 0 97.5 32t40.5 85q0 27 -18 49.5t-48 34.5q24 10 38.5 31t14.5 48q0 44 -34.5 73t-90.5 29q-99 0 -129 -84l76 -31q14 39 51 39q17 0 28.5 -9.5t11.5 -25.5q0 -38 -50 -38h-35v-71h39q56 0 56 -41q0 -20 -13.5 -32t-34.5 -12q-48 0 -58 53l-83 -30
q12 -49 51 -74.5t90 -25.5zM418 -16q-154 0 -264 110t-110 264t110 264t264 110t264 -110t110 -264t-110 -264t-264 -110z" />
    <glyph glyph-name="uni278D" horiz-adv-x="836" 
d="M504 177v65h48v74h-48v227h-87l-171 -237v-64h172v-65h86zM418 316h-84l76 107h8v-107zM418 -16q-154 0 -264 110t-110 264t110 264t264 110t264 -110t110 -264t-110 -264t-264 -110z" />
    <glyph glyph-name="uni278E" horiz-adv-x="836" 
d="M418 -16q-154 0 -264 110t-110 264t110 264t264 110t264 -110t110 -264t-110 -264t-264 -110zM418 169q56 0 96.5 35.5t40.5 91.5t-35.5 90.5t-84.5 34.5q-43 0 -66 -29l14 78h152v72h-219l-23 -189l73 -32q19 29 52 29q21 0 35 -14.5t14 -37.5t-14 -37.5t-36 -14.5
q-45 0 -56 45l-79 -31q13 -46 51 -68.5t85 -22.5z" />
    <glyph glyph-name="uni278F" horiz-adv-x="836" 
d="M418 -16q-154 0 -264 110t-110 264t110 264t264 110t264 -110t110 -264t-110 -264t-264 -110zM414 169q57 0 97 37.5t40 89.5q0 51 -34.5 86.5t-78.5 35.5q-13 0 -20 -4l77 96l-67 49l-44 -60q-52 -71 -64 -90q-43 -62 -43 -111q0 -53 39 -91t98 -38zM413 245
q-23 0 -36.5 14.5t-13.5 36.5q0 21 14.5 36t35.5 15q22 0 36 -15t14 -36q0 -22 -13.5 -36.5t-36.5 -14.5z" />
    <glyph glyph-name="uni2790" horiz-adv-x="836" 
d="M418 -16q-154 0 -264 110t-110 264t110 264t264 110t264 -110t110 -264t-110 -264t-264 -110zM307 202l79 -40l170 304v77h-260v-81h158z" />
    <glyph glyph-name="uni2791" horiz-adv-x="836" 
d="M418 -16q-154 0 -264 110t-110 264t110 264t264 110t264 -110t110 -264t-110 -264t-264 -110zM418 169q55 0 96.5 30.5t41.5 83.5q0 55 -55 87q43 25 43 72q0 49 -36.5 79t-89.5 30t-89.5 -30t-36.5 -79q0 -47 43 -72q-55 -32 -55 -87q0 -52 41 -83t97 -31zM418 402
q-16 0 -28 10t-12 27t11 27t29 10q17 0 28.5 -10.5t11.5 -26.5q0 -17 -12 -27t-28 -10zM418 244q-21 0 -35.5 12.5t-14.5 32.5t14.5 32.5t35.5 12.5q20 0 35 -13t15 -32t-15 -32t-35 -13z" />
    <glyph glyph-name="uni2792" horiz-adv-x="836" 
d="M418 -16q-154 0 -264 110t-110 264t110 264t264 110t264 -110t110 -264t-110 -264t-264 -110zM415 551q-57 0 -97 -37.5t-40 -89.5q0 -51 34.5 -86.5t78.5 -35.5q13 0 20 4l-77 -96l67 -49l44 60l36 50q5 8 10 15l10.5 14.5t7.5 10.5q43 62 43 111q0 53 -39 91t-98 38z
M416 475q23 0 36.5 -14.5t13.5 -36.5q0 -21 -14.5 -36t-35.5 -15q-22 0 -36 15t-14 36q0 22 13.5 36.5t36.5 14.5z" />
    <glyph glyph-name="Google.logo" horiz-adv-x="3284" 
d="M460 -16q-171 0 -293.5 120.5t-122.5 289.5t122.5 289.5t293.5 120.5q163 0 281 -113l-79 -79q-85 80 -202 80q-123 0 -208.5 -87t-85.5 -211t85.5 -211t208.5 -87q125 0 207 82q49 49 61 141h-268v112h377q6 -30 6 -70q0 -165 -97 -262q-109 -115 -286 -115zM1148 -16
q-111 0 -188 75.5t-77 188.5t77 188.5t188 75.5t188 -75.5t77 -188.5t-77 -188.5t-188 -75.5zM1148 88q61 0 105 45.5t44 114.5q0 70 -43.5 115t-105.5 45t-105.5 -45t-43.5 -115q0 -69 44 -114.5t105 -45.5zM1726 -16q-111 0 -188 75.5t-77 188.5t77 188.5t188 75.5
t188 -75.5t77 -188.5t-77 -188.5t-188 -75.5zM1726 88q61 0 105 45.5t44 114.5q0 70 -43.5 115t-105.5 45t-105.5 -45t-43.5 -115q0 -69 44 -114.5t105 -45.5zM2294 -253q-87 0 -147 46.5t-87 109.5l101 42q17 -39 50.5 -66.5t82.5 -27.5q67 0 104 40t37 115v38h-4
q-51 -60 -139 -60q-101 0 -177 77t-76 186q0 110 76 187.5t177 77.5q88 0 139 -59h4v43h110v-474q0 -138 -70.5 -206.5t-180.5 -68.5zM2302 88q60 0 100.5 45.5t40.5 113.5q0 69 -40.5 115t-100.5 46q-61 0 -104 -46t-43 -115q0 -68 43 -113.5t104 -45.5zM2741 776v-776
h-116v776h116zM3059 -16q-111 0 -186.5 76.5t-75.5 187.5q0 116 72.5 190t176.5 74q48 0 89.5 -17.5t68 -45t43 -53.5t25.5 -52l12 -30l-353 -146q41 -80 128 -80q79 0 130 73l90 -60q-82 -117 -220 -117zM2912 256l236 98q-10 25 -36.5 40.5t-61.5 15.5q-51 0 -95.5 -41.5
t-42.5 -112.5z" />
    <glyph glyph-name="G.logo" horiz-adv-x="861" 
d="M460 -16q-171 0 -293.5 120.5t-122.5 289.5t122.5 289.5t293.5 120.5q163 0 281 -113l-79 -79q-85 80 -202 80q-123 0 -208.5 -87t-85.5 -211t85.5 -211t208.5 -87q125 0 207 82q49 49 61 141h-268v112h377q6 -30 6 -70q0 -165 -97 -262q-109 -115 -286 -115z" />
    <glyph glyph-name="o.logo" horiz-adv-x="578" 
d="M287 -16q-111 0 -188 75.5t-77 188.5t77 188.5t188 75.5t188 -75.5t77 -188.5t-77 -188.5t-188 -75.5zM287 88q61 0 105 45.5t44 114.5q0 70 -43.5 115t-105.5 45t-105.5 -45t-43.5 -115q0 -69 44 -114.5t105 -45.5z" />
    <glyph glyph-name="g.logo" horiz-adv-x="566" 
d="M277 -253q-87 0 -147 46.5t-87 109.5l101 42q17 -39 50.5 -66.5t82.5 -27.5q67 0 104 40t37 115v38h-4q-51 -60 -139 -60q-101 0 -177 77t-76 186q0 110 76 187.5t177 77.5q88 0 139 -59h4v43h110v-474q0 -138 -70.5 -206.5t-180.5 -68.5zM285 88q60 0 100.5 45.5
t40.5 113.5q0 69 -40.5 115t-100.5 46q-61 0 -104 -46t-43 -115q0 -68 43 -113.5t104 -45.5z" />
    <glyph glyph-name="l.logo" horiz-adv-x="187" 
d="M158 776v-776h-116v776h116z" />
    <glyph glyph-name="e.logo" horiz-adv-x="514" 
d="M289 -16q-111 0 -186.5 76.5t-75.5 187.5q0 116 72.5 190t176.5 74q48 0 89.5 -17.5t68 -45t43 -53.5t25.5 -52l12 -30l-353 -146q41 -80 128 -80q79 0 130 73l90 -60q-82 -117 -220 -117zM142 256l236 98q-10 25 -36.5 40.5t-61.5 15.5q-51 0 -95.5 -41.5t-42.5 -112.5z
" />
    <glyph glyph-name="e.salt" horiz-adv-x="557" 
d="M284 -16q-111 0 -186.5 76.5t-75.5 187.5q0 115 72.5 189t176.5 74q40 0 75 -12t58.5 -29.5t43.5 -41.5t31 -43.5t20 -40.5l12 -37l-341 -141q19 -28 50 -46.5t64 -18.5q83 0 132 74l96 -67q-83 -124 -228 -124zM150 266l210 89q-11 18 -34 30.5t-51 11.5q-44 -1 -83 -36
t-42 -95z" />
    <glyph glyph-name="eacute.salt" horiz-adv-x="557" 
d="M284 -16q-111 0 -186.5 76.5t-75.5 187.5q0 115 72.5 189t176.5 74q40 0 75 -12t58.5 -29.5t43.5 -41.5t31 -43.5t20 -40.5l12 -37l-341 -141q19 -28 50 -46.5t64 -18.5q83 0 132 74l96 -67q-83 -124 -228 -124zM150 266l210 89q-11 18 -34 30.5t-51 11.5q-44 -1 -83 -36
t-42 -95zM295 717h131l-103 -148h-111z" />
    <glyph glyph-name="egrave.salt" horiz-adv-x="557" 
d="M284 -16q-111 0 -186.5 76.5t-75.5 187.5q0 115 72.5 189t176.5 74q40 0 75 -12t58.5 -29.5t43.5 -41.5t31 -43.5t20 -40.5l12 -37l-341 -141q19 -28 50 -46.5t64 -18.5q83 0 132 74l96 -67q-83 -124 -228 -124zM150 266l210 89q-11 18 -34 30.5t-51 11.5q-44 -1 -83 -36
t-42 -95zM124 717h131l83 -148h-111z" />
    <glyph glyph-name="uni1EB9.salt" horiz-adv-x="557" 
d="M284 -16q-111 0 -186.5 76.5t-75.5 187.5q0 115 72.5 189t176.5 74q40 0 75 -12t58.5 -29.5t43.5 -41.5t31 -43.5t20 -40.5l12 -37l-341 -141q19 -28 50 -46.5t64 -18.5q83 0 132 74l96 -67q-83 -124 -228 -124zM150 266l210 89q-11 18 -34 30.5t-51 11.5q-44 -1 -83 -36
t-42 -95zM281 -243q-31 0 -53 22t-22 53q0 32 22 54t53 22q32 0 54.5 -22t22.5 -54q0 -31 -22.5 -53t-54.5 -22z" />
    <glyph glyph-name="uni1EBB.salt" horiz-adv-x="557" 
d="M284 -16q-111 0 -186.5 76.5t-75.5 187.5q0 115 72.5 189t176.5 74q40 0 75 -12t58.5 -29.5t43.5 -41.5t31 -43.5t20 -40.5l12 -37l-341 -141q19 -28 50 -46.5t64 -18.5q83 0 132 74l96 -67q-83 -124 -228 -124zM150 266l210 89q-11 18 -34 30.5t-51 11.5q-44 -1 -83 -36
t-42 -95zM318 569h-89q0 29 11 45q5 9 29 26.5t24 33.5q0 18 -26 18q-22 0 -39 -23l-75 27q30 70 120 70q51 0 81.5 -23.5t30.5 -60.5q0 -26 -9.5 -43.5t-21.5 -24.5t-23 -18.5t-13 -26.5z" />
    <glyph glyph-name="uni1EBD.salt" horiz-adv-x="557" 
d="M284 -16q-111 0 -186.5 76.5t-75.5 187.5q0 115 72.5 189t176.5 74q40 0 75 -12t58.5 -29.5t43.5 -41.5t31 -43.5t20 -40.5l12 -37l-341 -141q19 -28 50 -46.5t64 -18.5q83 0 132 74l96 -67q-83 -124 -228 -124zM150 266l210 89q-11 18 -34 30.5t-51 11.5q-44 -1 -83 -36
t-42 -95zM333 559q-30 0 -61 20q-7 3 -15.5 8t-13.5 7.5t-10 2.5q-21 0 -22 -28h-81q0 61 28.5 91.5t71.5 30.5q25 0 61 -19q33 -19 38 -19q22 0 23 28h81q0 -61 -28.5 -91.5t-71.5 -30.5z" />
    <glyph glyph-name="ecircumflex.salt" horiz-adv-x="557" 
d="M284 -16q-111 0 -186.5 76.5t-75.5 187.5q0 115 72.5 189t176.5 74q40 0 75 -12t58.5 -29.5t43.5 -41.5t31 -43.5t20 -40.5l12 -37l-341 -141q19 -28 50 -46.5t64 -18.5q83 0 132 74l96 -67q-83 -124 -228 -124zM150 266l210 89q-11 18 -34 30.5t-51 11.5q-44 -1 -83 -36
t-42 -95zM274 621l-47 -62h-112l105 148h108l105 -148h-112z" />
    <glyph glyph-name="uni1EBF.salt" horiz-adv-x="557" 
d="M284 -16q-111 0 -186.5 76.5t-75.5 187.5q0 115 72.5 189t176.5 74q40 0 75 -12t58.5 -29.5t43.5 -41.5t31 -43.5t20 -40.5l12 -37l-341 -141q19 -28 50 -46.5t64 -18.5q83 0 132 74l96 -67q-83 -124 -228 -124zM150 266l210 89q-11 18 -34 30.5t-51 11.5q-44 -1 -83 -36
t-42 -95zM274 615l-47 -56h-112l105 132h108l105 -132h-112zM462 778h131l-87 -117h-111z" />
    <glyph glyph-name="uni1EC1.salt" horiz-adv-x="557" 
d="M284 -16q-111 0 -186.5 76.5t-75.5 187.5q0 115 72.5 189t176.5 74q40 0 75 -12t58.5 -29.5t43.5 -41.5t31 -43.5t20 -40.5l12 -37l-341 -141q19 -28 50 -46.5t64 -18.5q83 0 132 74l96 -67q-83 -124 -228 -124zM150 266l210 89q-11 18 -34 30.5t-51 11.5q-44 -1 -83 -36
t-42 -95zM275 615l-47 -56h-112l105 132h108l105 -132h-112zM319 778h131l67 -117h-111z" />
    <glyph glyph-name="uni1EC3.salt" horiz-adv-x="557" 
d="M284 -16q-111 0 -186.5 76.5t-75.5 187.5q0 115 72.5 189t176.5 74q40 0 75 -12t58.5 -29.5t43.5 -41.5t31 -43.5t20 -40.5l12 -37l-341 -141q19 -28 50 -46.5t64 -18.5q83 0 132 74l96 -67q-83 -124 -228 -124zM150 266l210 89q-11 18 -34 30.5t-51 11.5q-44 -1 -83 -36
t-42 -95zM274 615l-47 -56h-112l105 132h108l105 -132h-112zM476 651h-77q0 24 9 39q5 8 23 21.5t18 23.5q0 15 -18 15q-21 0 -32 -24l-66 24q23 62 103 62q42 0 67.5 -19.5t25.5 -49.5q0 -35 -25.5 -56t-27.5 -36z" />
    <glyph glyph-name="uni1EC5.salt" horiz-adv-x="557" 
d="M284 -16q-111 0 -186.5 76.5t-75.5 187.5q0 115 72.5 189t176.5 74q40 0 75 -12t58.5 -29.5t43.5 -41.5t31 -43.5t20 -40.5l12 -37l-341 -141q19 -28 50 -46.5t64 -18.5q83 0 132 74l96 -67q-83 -124 -228 -124zM150 266l210 89q-11 18 -34 30.5t-51 11.5q-44 -1 -83 -36
t-42 -95zM274 611l-47 -52h-112l105 122h108l105 -122h-112zM336 711q-29 0 -61 17q-7 3 -15.5 7.5t-13.5 6.5t-10 2q-20 0 -22 -24h-81q0 52 28.5 78t71.5 26q27 0 61 -16q36 -17 38 -17q22 0 23 24h81q0 -52 -28.5 -78t-71.5 -26z" />
    <glyph glyph-name="uni1EC7.salt" horiz-adv-x="557" 
d="M284 -16q-111 0 -186.5 76.5t-75.5 187.5q0 115 72.5 189t176.5 74q40 0 75 -12t58.5 -29.5t43.5 -41.5t31 -43.5t20 -40.5l12 -37l-341 -141q19 -28 50 -46.5t64 -18.5q83 0 132 74l96 -67q-83 -124 -228 -124zM150 266l210 89q-11 18 -34 30.5t-51 11.5q-44 -1 -83 -36
t-42 -95zM274 621l-47 -62h-112l105 148h108l105 -148h-112zM281 -243q-31 0 -53 22t-22 53q0 32 22 54t53 22q32 0 54.5 -22t22.5 -54q0 -31 -22.5 -53t-54.5 -22z" />
    </font>
</defs>
</svg>
